<svg width="84" height="84" viewBox="0 0 84 84" fill="none" xmlns="http://www.w3.org/2000/svg">
<g id="parking-svgrepo-com 1" clip-path="url(#clip0_735_132)">
<g id="Group">
<g id="Group_2">
<path id="Vector" d="M83.7807 76.6655H0V79.2282H83.7807V76.6655Z" fill="black"/>
</g>
</g>
<g id="Group_3">
<g id="Group_4">
<path id="Vector_2" d="M37.9629 50.5063C35.0908 50.5063 32.7544 52.8429 32.7544 55.7149C32.7544 58.5868 35.0909 60.9234 37.9629 60.9234H83.7801V58.3607H75.0922L80.3838 53.069H83.7801V50.5065H37.9629V50.5063ZM42.0288 58.3609H37.9629C36.5041 58.3607 35.3171 57.1739 35.3171 55.7149C35.3171 54.2561 36.5039 53.069 37.9629 53.069H42.0288V58.3609ZM44.5915 58.3607V53.069H53.1963L47.9046 58.3607H44.5915ZM51.529 58.3607L56.8205 53.069H64.9779L59.6862 58.3607H51.529ZM71.4678 58.3607H63.3104L68.6021 53.069H76.7591L71.4678 58.3607Z" fill="black"/>
</g>
</g>
<g id="Group_5">
<g id="Group_6">
<path id="Vector_3" d="M40.4904 54.4395H37.9277V57.0022H40.4904V54.4395Z" fill="black"/>
</g>
</g>
<g id="Group_7">
<g id="Group_8">
<path id="Vector_4" d="M35.3657 62.1284V75.4546H37.9284V64.6911H44.5915V62.1284H35.3657Z" fill="#FE7D02"/>
</g>
</g>
<g id="Group_9">
<g id="Group_10">
<path id="Vector_5" d="M27.5063 10.02V75.4548H30.0692V12.5827H83.7156V10.02H27.5063Z" fill="black"/>
</g>
</g>
<g id="Group_11">
<g id="Group_12">
<path id="Vector_6" d="M0.027832 9.92529V50.4508H24.8448V9.92529H0.027832ZM22.2821 47.8881H2.59053V12.488H22.282L22.2821 47.8881Z" fill="black"/>
</g>
</g>
<g id="Group_13">
<g id="Group_14">
<path id="Vector_7" d="M5.29639 15.1455V40.0893H7.85909V28.13H19.6476V15.1455H5.29639ZM17.085 25.5673H7.85925V17.7082H17.085V25.5673Z" fill="#FE7D02"/>
</g>
</g>
<g id="Group_15">
<g id="Group_16">
<path id="Vector_8" d="M19.6467 37.5273H11.7876V40.09H19.6467V37.5273Z" fill="black"/>
</g>
</g>
<g id="Group_17">
<g id="Group_18">
<path id="Vector_9" d="M19.6467 33.4268H11.7876V35.9895H19.6467V33.4268Z" fill="black"/>
</g>
</g>
<g id="Group_19">
<g id="Group_20">
<path id="Vector_10" d="M7.85805 42.6528H5.12451V45.2155H7.85805V42.6528Z" fill="black"/>
</g>
</g>
<g id="Group_21">
<g id="Group_22">
<path id="Vector_11" d="M11.7877 42.6528H9.0542V45.2155H11.7877V42.6528Z" fill="black"/>
</g>
</g>
<g id="Group_23">
<g id="Group_24">
<path id="Vector_12" d="M15.7174 42.6528H12.9839V45.2155H15.7174V42.6528Z" fill="black"/>
</g>
</g>
<g id="Group_25">
<g id="Group_26">
<path id="Vector_13" d="M19.6467 42.6528H17.084V45.2155H19.6467V42.6528Z" fill="black"/>
</g>
</g>
<g id="Group_27">
<g id="Group_28">
<path id="Vector_14" d="M22.3811 51.707V57.0033H0V59.566H22.3811V62.1287H0V64.6914H22.3811V75.4548H24.9438V51.707H22.3811Z" fill="black"/>
</g>
</g>
<g id="Group_29">
<g id="Group_30">
<path id="Vector_15" d="M22.3813 4.55273V8.48228H24.944V7.11543H83.7159V4.55273H22.3813Z" fill="black"/>
</g>
</g>
</g>
<defs>
<clipPath id="clip0_735_132">
<rect width="83.7807" height="83.7807" fill="white"/>
</clipPath>
</defs>
</svg>
