<svg width="139" height="174" viewBox="0 0 139 174" fill="none" xmlns="http://www.w3.org/2000/svg">
<g clip-path="url(#clip0_248_156)">
<path d="M90.9585 102.051C90.8689 101.868 90.7298 101.714 90.557 101.606C90.3842 101.498 90.1847 101.442 89.9812 101.442H85.9415V95.7C85.9559 95.4827 85.9559 95.2648 85.9415 95.0475V78.6263C85.9492 76.145 84.9964 73.7573 83.2833 71.9647C81.5702 70.1721 79.2301 69.114 76.7544 69.0128C75.4898 68.9589 74.2276 69.1668 73.0468 69.6233C71.8659 70.0799 70.7917 70.7753 69.8913 71.6663C68.8868 72.6318 68.0865 73.7899 67.538 75.0715C66.9895 76.3531 66.7041 77.7321 66.6987 79.1265V79.257H65.5693C64.481 79.2601 63.4061 79.0173 62.4247 78.5465C61.4432 78.0758 60.5804 77.3893 59.9007 76.5383L55.5569 71.1225C55.4979 71.0643 55.4323 71.0132 55.3615 70.9703L51.8213 65.6633C51.6873 65.4588 51.4883 65.3055 51.2566 65.2283L45.9572 63.4665C45.77 63.4037 45.5691 63.3932 45.3763 63.4362C45.1835 63.4792 45.0061 63.574 44.8631 63.7105C44.7201 63.847 44.617 64.0199 44.5649 64.2107C44.5127 64.4015 44.5136 64.6029 44.5672 64.7933L48.1074 77.1908C48.1591 77.3754 48.2587 77.5431 48.396 77.6768C48.5333 77.8105 48.7035 77.9054 48.8893 77.952L51.7996 82.302C53.0385 84.1641 54.7179 85.6905 56.6883 86.7454C58.6587 87.8004 60.859 88.3511 63.0933 88.3485H66.6552V94.6125H57.9677C56.8027 94.6171 55.6505 94.8563 54.5796 95.3159C53.5088 95.7755 52.5412 96.4461 51.7344 97.2878C50.9997 98.0363 50.4274 98.929 50.0537 99.9096C49.6799 100.89 49.5127 101.938 49.5626 102.986C49.6791 105.006 50.5632 106.904 52.0333 108.291C53.5035 109.679 55.4482 110.45 57.4682 110.447H93.391C93.5756 110.447 93.7571 110.4 93.9187 110.311C94.0802 110.221 94.2162 110.092 94.314 109.935C94.4119 109.779 94.4682 109.6 94.4777 109.415C94.4872 109.23 94.4495 109.046 94.3683 108.881L90.9585 102.051ZM47.2169 66.0548L50.2141 67.0553L53.0593 71.4053L49.6929 74.7765L47.2169 66.0548ZM53.7326 80.997L51.1046 77.0603L54.7316 73.428L58.2935 77.8868C59.1744 78.9953 60.2943 79.8901 61.5693 80.504C62.8443 81.118 64.2414 81.4352 65.6562 81.432H71.5637C71.9518 81.4341 72.3354 81.5163 72.6904 81.6734C73.0454 81.8306 73.3642 82.0594 73.6269 82.3455C73.8329 82.5695 73.9896 82.8343 74.0868 83.1228C74.1841 83.4113 74.2198 83.7171 74.1916 84.0203C74.1393 84.5542 73.8918 85.05 73.4966 85.4123C73.2872 85.6324 73.0341 85.8062 72.7535 85.9223C72.473 86.0384 72.1712 86.0944 71.8677 86.0865H63.1802C61.2947 86.0938 59.4367 85.6327 57.7728 84.7445C56.1088 83.8563 54.6908 82.5687 53.6457 80.997H53.7326ZM53.4937 106.575C52.499 105.574 51.9042 104.244 51.8213 102.834C51.7832 102.083 51.9005 101.332 52.1659 100.628C52.4312 99.9246 52.8389 99.2834 53.3633 98.745C53.9657 98.118 54.6872 97.618 55.4854 97.2743C56.2836 96.9307 57.1423 96.7504 58.0112 96.744H67.8063C68.0943 96.744 68.3705 96.6294 68.5742 96.4255C68.7778 96.2215 68.8922 95.9449 68.8922 95.6565V88.2615H72.9319C74.0408 88.2576 75.1096 87.8455 75.9346 87.1034C76.7597 86.3614 77.2834 85.3415 77.406 84.2378C77.4652 83.6329 77.3973 83.0224 77.2065 82.4455C77.0157 81.8686 76.7064 81.3381 76.2983 80.8883C75.8342 80.3747 75.2678 79.9643 74.6356 79.6833C74.0035 79.4024 73.3195 79.2571 72.6279 79.257H68.8705V79.1265C68.8736 78.0249 69.0982 76.9353 69.5311 75.9226C69.964 74.9099 70.5961 73.9949 71.3899 73.2323C72.0824 72.5533 72.9053 72.0221 73.8087 71.6707C74.7121 71.3192 75.6772 71.155 76.6458 71.1878C78.5588 71.2719 80.3655 72.0925 81.6887 73.4785C83.012 74.8645 83.7497 76.7087 83.7479 78.6263V95.1998C83.7577 95.3301 83.7577 95.4609 83.7479 95.5913C83.7448 95.6347 83.7448 95.6783 83.7479 95.7218V101.464H59.2708C58.9828 101.464 58.7066 101.578 58.503 101.782C58.2993 101.986 58.1849 102.263 58.1849 102.551C58.1849 102.84 58.2993 103.116 58.503 103.32C58.7066 103.524 58.9828 103.639 59.2708 103.639H83.7696V108.293H57.5551C56.7985 108.288 56.0504 108.134 55.3535 107.839C54.6567 107.544 54.0246 107.115 53.4937 106.575ZM85.9415 108.25V103.639H89.3079L91.6318 108.293L85.9415 108.25Z" fill="black"/>
<path d="M75.6894 69.0128C76.2277 69.0121 76.7652 68.9685 77.2966 68.8823C79.1148 68.5904 80.8157 67.7967 82.2084 66.5903C83.601 65.3839 84.6303 63.8126 85.1805 62.0528C85.4633 61.0921 85.6096 60.0963 85.6148 59.0948C85.6148 56.4557 84.568 53.9247 82.7046 52.0586C80.8411 50.1925 78.3138 49.1441 75.6785 49.1441C73.0432 49.1441 70.5159 50.1925 68.6525 52.0586C66.789 53.9247 65.7422 56.4557 65.7422 59.0948C65.7448 60.1036 65.8911 61.107 66.1766 62.0745C66.8129 64.0977 68.0801 65.8633 69.7923 67.1121C71.5045 68.3608 73.5713 69.027 75.6894 69.0128ZM74.4514 66.8378H74.0605L73.2786 66.642L72.8225 66.4463L72.1927 66.1853L71.6714 65.7068L71.1502 65.3805L70.6723 64.989L70.2597 64.641C70.1077 64.4888 69.9556 64.3148 69.8036 64.1408L69.4995 63.7275C69.3692 63.5535 69.2389 63.3578 69.1303 63.162L68.848 62.7053C68.848 62.5095 68.6742 62.3138 68.5873 62.118L68.4136 61.683C68.9628 60.1874 69.957 58.8966 71.262 57.9848C72.5669 57.0729 74.1199 56.584 75.7111 56.584C77.3023 56.584 78.8552 57.0729 80.1602 57.9848C81.4652 58.8966 82.4594 60.1874 83.0086 61.683L82.8348 62.118C82.8348 62.3138 82.6828 62.4878 82.5742 62.6835C82.4656 62.8793 82.357 63.0315 82.2484 63.2055L81.9227 63.684L81.51 64.1625L81.1408 64.5758L80.663 64.989L80.2503 65.337L79.6856 65.685L79.2295 65.946L78.578 66.2288L78.1219 66.4028L77.34 66.5985H76.9491C76.129 66.7302 75.2932 66.7302 74.4731 66.5985L74.4514 66.8378ZM75.6894 51.3953C77.5689 51.4007 79.3824 52.0896 80.7927 53.3338C82.203 54.5781 83.1139 56.293 83.3561 58.1595C82.4272 57.022 81.2575 56.1054 79.9316 55.4759C78.6057 54.8465 77.1567 54.52 75.6894 54.52C74.222 54.52 72.773 54.8465 71.4471 55.4759C70.1212 56.1054 68.9515 57.022 68.0227 58.1595C68.2404 56.2733 69.1407 54.5323 70.5535 53.2659C71.9662 51.9994 73.7933 51.2952 75.6894 51.2865V51.3953Z" fill="black"/>
<path d="M119.453 53.157L70.2384 7.89526H70.0864H69.9127H69.6955H69.3045H69.0873H68.9136H68.7616L19.5469 53.157C18.5322 54.0676 17.7184 55.1801 17.1575 56.4234C16.5965 57.6668 16.3008 59.0137 16.2891 60.378V60.9C16.295 63.3054 17.1832 65.6247 18.7849 67.4172C20.3866 69.2096 22.5901 70.3503 24.9766 70.6223V130.5C24.9766 130.788 25.091 131.065 25.2946 131.269C25.4983 131.473 25.7745 131.588 26.0625 131.588H112.938C113.226 131.588 113.502 131.473 113.705 131.269C113.909 131.065 114.023 130.788 114.023 130.5V70.6223C116.41 70.3503 118.613 69.2096 120.215 67.4172C121.817 65.6247 122.705 63.3054 122.711 60.9V60.378C122.699 59.0137 122.403 57.6668 121.843 56.4234C121.282 55.1801 120.468 54.0676 119.453 53.157ZM120.539 60.9C120.539 62.919 119.738 64.8552 118.313 66.2829C116.887 67.7105 114.954 68.5125 112.938 68.5125C112.649 68.5125 112.373 68.6271 112.17 68.831C111.966 69.035 111.852 69.3116 111.852 69.6V129.413H27.1484V69.6C27.1484 69.3116 27.034 69.035 26.8304 68.831C26.6267 68.6271 26.3505 68.5125 26.0625 68.5125C24.0464 68.5125 22.113 67.7105 20.6874 66.2829C19.2618 64.8552 18.4609 62.919 18.4609 60.9V60.378C18.4609 59.3237 18.6789 58.2807 19.1013 57.3149C19.5237 56.3491 20.1413 55.4814 20.9152 54.7665L69.5 10.179L118.085 54.7665C118.859 55.4814 119.476 56.3491 119.899 57.3149C120.321 58.2807 120.539 59.3237 120.539 60.378V60.9Z" fill="black"/>
<path d="M70.2382 20.5755H70.0861H69.9124H69.6952H69.3043H69.0871H68.9133H68.7613L29.6675 56.3978C28.8544 57.1442 28.2049 58.0516 27.76 59.0624C27.3151 60.0733 27.0846 61.1656 27.083 62.2702V62.6835C27.086 64.61 27.7847 66.4704 29.05 67.9214C30.3154 69.3725 32.0621 70.3163 33.9679 70.5788V122.126C33.9679 122.415 34.0823 122.691 34.2859 122.895C34.4896 123.099 34.7658 123.214 35.0538 123.214H103.881C104.169 123.214 104.445 123.099 104.648 122.895C104.852 122.691 104.966 122.415 104.966 122.126V70.6223C106.872 70.3598 108.619 69.416 109.884 67.9649C111.15 66.5139 111.848 64.6535 111.851 62.727V62.3138C111.85 61.2091 111.619 60.1168 111.174 59.1059C110.729 58.0951 110.08 57.1877 109.267 56.4413L70.2382 20.5755ZM109.679 62.7053C109.679 64.2454 109.068 65.7225 107.981 66.8116C106.893 67.9007 105.418 68.5125 103.881 68.5125C103.592 68.5125 103.316 68.6271 103.113 68.831C102.909 69.035 102.795 69.3116 102.795 69.6V121.082H36.2049V69.6C36.2049 69.3116 36.0905 69.035 35.8868 68.831C35.6832 68.6271 35.407 68.5125 35.1189 68.5125C33.581 68.5125 32.106 67.9007 31.0185 66.8116C29.931 65.7225 29.32 64.2454 29.32 62.7053V62.292C29.3115 61.4746 29.4754 60.6646 29.801 59.915C30.1267 59.1654 30.6066 58.4931 31.2096 57.942L69.4997 22.8593L107.79 58.029C108.393 58.5801 108.873 59.2524 109.198 60.002C109.524 60.7516 109.688 61.5616 109.679 62.379V62.7053Z" fill="black"/>
<path d="M92.24 48.3068C92.1344 48.2096 92.0108 48.1343 91.8762 48.085C91.7416 48.0357 91.5986 48.0135 91.4554 48.0196C91.3123 48.0256 91.1717 48.0599 91.0417 48.1203C90.9117 48.1808 90.7949 48.2663 90.6979 48.372C90.6009 48.4777 90.5257 48.6015 90.4765 48.7363C90.4273 48.8711 90.4051 49.0143 90.4111 49.1577C90.4172 49.301 90.4514 49.4418 90.5118 49.572C90.5722 49.7022 90.6575 49.8192 90.7631 49.9163L99.6026 58.0508C100.202 58.6038 100.678 59.2769 100.999 60.0265C101.321 60.776 101.482 61.585 101.47 62.4008V62.814C101.47 63.2906 101.411 63.7653 101.297 64.2278C101.261 64.3678 101.254 64.5135 101.275 64.6563C101.296 64.7992 101.346 64.9364 101.421 65.0599C101.495 65.1834 101.594 65.2908 101.711 65.3757C101.827 65.4606 101.96 65.5214 102.1 65.5545H102.361C102.605 65.5568 102.843 65.4764 103.036 65.3264C103.23 65.1764 103.366 64.9656 103.425 64.728C103.583 64.0948 103.663 63.4448 103.664 62.7923V62.379C103.662 61.2743 103.432 60.182 102.987 59.1712C102.542 58.1604 101.893 57.253 101.079 56.5065L92.24 48.3068Z" fill="#FF4545"/>
<path d="M84.5943 44.2178C84.795 44.4035 85.0595 44.5047 85.3327 44.5005C85.5526 44.5022 85.7678 44.4369 85.9498 44.3134C86.1319 44.1899 86.2722 44.014 86.3522 43.8089C86.4323 43.6038 86.4482 43.3792 86.3981 43.1648C86.3479 42.9504 86.2339 42.7564 86.0712 42.6083L77.7312 34.9523C77.518 34.7561 77.2358 34.6528 76.9466 34.6651C76.6575 34.6773 76.385 34.8041 76.1891 35.0175C75.9933 35.231 75.8901 35.5136 75.9023 35.8032C75.9146 36.0928 76.0412 36.3656 76.2543 36.5618L84.5943 44.2178Z" fill="#FF4545"/>
<path d="M70.8468 31.6028C71.0599 31.7989 71.3421 31.9022 71.6313 31.89C71.9205 31.8777 72.193 31.7509 72.3888 31.5375C72.5847 31.3241 72.6878 31.0415 72.6756 30.7519C72.6634 30.4623 72.5368 30.1894 72.3237 29.9933L70.6296 28.449C70.4165 28.2529 70.1343 28.1496 69.8451 28.1618C69.5559 28.174 69.2834 28.3008 69.0876 28.5143C68.8917 28.7277 68.7886 29.0103 68.8008 29.2999C68.813 29.5895 68.9396 29.8624 69.1527 30.0585L70.8468 31.6028Z" fill="black"/>
<path d="M1.76847 174.098V174.666H0.0852273V174.098H1.76847ZM0.470526 176.825V173.901C0.470526 173.703 0.508996 173.539 0.585938 173.409C0.664062 173.279 0.770597 173.181 0.90554 173.116C1.04048 173.051 1.19377 173.018 1.36541 173.018C1.48142 173.018 1.58736 173.027 1.68324 173.045C1.7803 173.063 1.85251 173.079 1.89986 173.093L1.76491 173.661C1.73532 173.651 1.69863 173.643 1.65483 173.634C1.61222 173.626 1.56842 173.622 1.52344 173.622C1.41217 173.622 1.33464 173.648 1.29084 173.7C1.24704 173.751 1.22514 173.823 1.22514 173.915V176.825H0.470526ZM2.23056 176.825V174.098H2.96387V174.574H2.99228C3.04199 174.404 3.12544 174.276 3.24263 174.19C3.35982 174.102 3.49476 174.059 3.64746 174.059C3.68534 174.059 3.72618 174.061 3.76998 174.066C3.81377 174.071 3.85224 174.077 3.88539 174.085V174.756C3.84988 174.746 3.80075 174.736 3.73801 174.728C3.67528 174.72 3.61787 174.716 3.56578 174.716C3.45452 174.716 3.35508 174.74 3.26749 174.788C3.18108 174.836 3.11242 174.902 3.06152 174.987C3.01181 175.073 2.98695 175.171 2.98695 175.282V176.825H2.23056ZM5.38175 176.878C5.10594 176.878 4.86742 176.82 4.66619 176.702C4.46615 176.584 4.31167 176.42 4.20277 176.209C4.09387 175.997 4.03942 175.751 4.03942 175.472C4.03942 175.19 4.09387 174.944 4.20277 174.733C4.31167 174.522 4.46615 174.357 4.66619 174.24C4.86742 174.121 5.10594 174.062 5.38175 174.062C5.65755 174.062 5.89548 174.121 6.09553 174.24C6.29676 174.357 6.45182 174.522 6.56072 174.733C6.66963 174.944 6.72408 175.19 6.72408 175.472C6.72408 175.751 6.66963 175.997 6.56072 176.209C6.45182 176.42 6.29676 176.584 6.09553 176.702C5.89548 176.82 5.65755 176.878 5.38175 176.878ZM5.3853 176.292C5.51077 176.292 5.61553 176.257 5.69957 176.186C5.78362 176.114 5.84695 176.015 5.88956 175.891C5.93336 175.767 5.95526 175.625 5.95526 175.467C5.95526 175.308 5.93336 175.167 5.88956 175.042C5.84695 174.918 5.78362 174.82 5.69957 174.748C5.61553 174.675 5.51077 174.639 5.3853 174.639C5.25864 174.639 5.15211 174.675 5.0657 174.748C4.98047 174.82 4.91596 174.918 4.87216 175.042C4.82955 175.167 4.80824 175.308 4.80824 175.467C4.80824 175.625 4.82955 175.767 4.87216 175.891C4.91596 176.015 4.98047 176.114 5.0657 176.186C5.15211 176.257 5.25864 176.292 5.3853 176.292ZM7.21591 176.825V174.098H7.93679V174.579H7.96875C8.02557 174.419 8.12027 174.293 8.25284 174.201C8.38542 174.108 8.54403 174.062 8.72869 174.062C8.91572 174.062 9.07493 174.109 9.20632 174.202C9.33771 174.295 9.42531 174.42 9.46911 174.579H9.49751C9.55315 174.423 9.65376 174.298 9.79936 174.204C9.94614 174.11 10.1196 174.062 10.3196 174.062C10.5741 174.062 10.7807 174.143 10.9393 174.305C11.0991 174.466 11.179 174.695 11.179 174.991V176.825H10.4244V175.14C10.4244 174.988 10.3841 174.875 10.3036 174.799C10.2231 174.723 10.1225 174.685 10.0018 174.685C9.86446 174.685 9.75734 174.729 9.6804 174.817C9.60346 174.903 9.56499 175.017 9.56499 175.16V176.825H8.83168V175.124C8.83168 174.99 8.79321 174.884 8.71626 174.804C8.64051 174.725 8.54048 174.685 8.41619 174.685C8.33215 174.685 8.25639 174.707 8.18892 174.749C8.12263 174.791 8.06996 174.849 8.03089 174.925C7.99183 175 7.9723 175.087 7.9723 175.188V176.825H7.21591ZM14.3843 174.098V174.666H12.7419V174.098H14.3843ZM13.1148 173.444H13.8712V175.987C13.8712 176.057 13.8818 176.111 13.9031 176.15C13.9244 176.188 13.954 176.215 13.9919 176.23C14.031 176.246 14.076 176.253 14.1269 176.253C14.1624 176.253 14.1979 176.25 14.2334 176.244C14.2689 176.237 14.2961 176.232 14.3151 176.228L14.434 176.791C14.3962 176.803 14.3429 176.817 14.2742 176.832C14.2056 176.849 14.1221 176.859 14.0239 176.862C13.8416 176.869 13.6818 176.845 13.5445 176.79C13.4084 176.734 13.3024 176.647 13.2267 176.53C13.1509 176.413 13.1136 176.265 13.1148 176.086V173.444ZM15.692 175.248V176.825H14.9356V173.189H15.6707V174.579H15.7027C15.7642 174.418 15.8637 174.292 16.001 174.201C16.1383 174.108 16.3105 174.062 16.5177 174.062C16.7071 174.062 16.8722 174.104 17.0131 174.187C17.1551 174.268 17.2652 174.386 17.3433 174.54C17.4226 174.693 17.4617 174.875 17.4605 175.089V176.825H16.7041V175.223C16.7053 175.055 16.6627 174.925 16.5763 174.831C16.491 174.738 16.3715 174.691 16.2176 174.691C16.1146 174.691 16.0235 174.713 15.9442 174.756C15.866 174.8 15.8045 174.864 15.7595 174.948C15.7157 175.031 15.6932 175.131 15.692 175.248ZM19.2987 176.878C19.0181 176.878 18.7766 176.821 18.5742 176.708C18.373 176.593 18.2179 176.431 18.109 176.221C18.0001 176.011 17.9457 175.761 17.9457 175.474C17.9457 175.193 18.0001 174.947 18.109 174.735C18.2179 174.523 18.3712 174.358 18.5689 174.24C18.7678 174.121 19.0009 174.062 19.2685 174.062C19.4484 174.062 19.6159 174.091 19.771 174.149C19.9272 174.206 20.0633 174.292 20.1793 174.407C20.2965 174.522 20.3877 174.666 20.4528 174.84C20.5179 175.013 20.5504 175.215 20.5504 175.447V175.655H18.2475V175.186H19.8384C19.8384 175.077 19.8147 174.981 19.7674 174.897C19.7201 174.813 19.6544 174.747 19.5703 174.7C19.4875 174.651 19.391 174.627 19.2809 174.627C19.1661 174.627 19.0643 174.653 18.9755 174.707C18.8879 174.759 18.8192 174.829 18.7695 174.918C18.7198 175.006 18.6944 175.103 18.6932 175.211V175.657C18.6932 175.792 18.718 175.908 18.7678 176.006C18.8187 176.105 18.8903 176.18 18.9826 176.234C19.0749 176.287 19.1844 176.314 19.3111 176.314C19.3951 176.314 19.4721 176.302 19.5419 176.278C19.6117 176.254 19.6715 176.219 19.7212 176.172C19.771 176.124 19.8088 176.066 19.8349 175.998L20.5344 176.044C20.4989 176.212 20.4261 176.359 20.3161 176.484C20.2071 176.608 20.0663 176.705 19.8935 176.775C19.7218 176.844 19.5236 176.878 19.2987 176.878ZM25.257 173.189V176.825H24.593L23.0109 174.536H22.9843V176.825H22.2155V173.189H22.8902L24.4598 175.476H24.4917V173.189H25.257ZM27.1103 176.878C26.8345 176.878 26.5959 176.82 26.3947 176.702C26.1947 176.584 26.0402 176.42 25.9313 176.209C25.8224 175.997 25.7679 175.751 25.7679 175.472C25.7679 175.19 25.8224 174.944 25.9313 174.733C26.0402 174.522 26.1947 174.357 26.3947 174.24C26.5959 174.121 26.8345 174.062 27.1103 174.062C27.3861 174.062 27.624 174.121 27.824 174.24C28.0253 174.357 28.1803 174.522 28.2892 174.733C28.3981 174.944 28.4526 175.19 28.4526 175.472C28.4526 175.751 28.3981 175.997 28.2892 176.209C28.1803 176.42 28.0253 176.584 27.824 176.702C27.624 176.82 27.3861 176.878 27.1103 176.878ZM27.1138 176.292C27.2393 176.292 27.344 176.257 27.4281 176.186C27.5121 176.114 27.5755 176.015 27.6181 175.891C27.6619 175.767 27.6838 175.625 27.6838 175.467C27.6838 175.308 27.6619 175.167 27.6181 175.042C27.5755 174.918 27.5121 174.82 27.4281 174.748C27.344 174.675 27.2393 174.639 27.1138 174.639C26.9872 174.639 26.8806 174.675 26.7942 174.748C26.709 174.82 26.6445 174.918 26.6007 175.042C26.5581 175.167 26.5368 175.308 26.5368 175.467C26.5368 175.625 26.5581 175.767 26.6007 175.891C26.6445 176.015 26.709 176.114 26.7942 176.186C26.8806 176.257 26.9872 176.292 27.1138 176.292ZM30.6934 175.664V174.098H31.4498V176.825H30.7235V176.33H30.6951C30.6336 176.489 30.5312 176.618 30.388 176.715C30.2459 176.812 30.0725 176.861 29.8677 176.861C29.6854 176.861 29.525 176.819 29.3865 176.736C29.248 176.653 29.1397 176.536 29.0616 176.383C28.9847 176.23 28.9456 176.047 28.9444 175.834V174.098H29.7008V175.699C29.702 175.86 29.7452 175.988 29.8304 176.081C29.9157 176.175 30.0299 176.221 30.1731 176.221C30.2643 176.221 30.3495 176.201 30.4288 176.159C30.5081 176.117 30.572 176.054 30.6206 175.971C30.6703 175.888 30.6945 175.786 30.6934 175.664ZM32.8112 175.248V176.825H32.0548V174.098H32.7757V174.579H32.8076C32.868 174.42 32.9692 174.295 33.1112 174.202C33.2533 174.109 33.4255 174.062 33.6279 174.062C33.8173 174.062 33.9825 174.104 34.1233 174.187C34.2642 174.269 34.3737 174.388 34.4518 174.542C34.5299 174.694 34.569 174.877 34.569 175.089V176.825H33.8126V175.223C33.8138 175.057 33.7712 174.926 33.6847 174.833C33.5983 174.738 33.4794 174.691 33.3279 174.691C33.2261 174.691 33.1361 174.713 33.058 174.756C32.981 174.8 32.9207 174.864 32.8769 174.948C32.8343 175.031 32.8124 175.131 32.8112 175.248ZM36.3366 176.825V173.189H37.7712C38.047 173.189 38.282 173.241 38.4761 173.347C38.6702 173.451 38.8182 173.596 38.92 173.782C39.023 173.966 39.0745 174.179 39.0745 174.421C39.0745 174.662 39.0224 174.875 38.9182 175.06C38.8141 175.245 38.6631 175.389 38.4655 175.492C38.269 175.595 38.031 175.646 37.7517 175.646H36.8373V175.03H37.6274C37.7754 175.03 37.8973 175.004 37.9932 174.954C38.0902 174.901 38.1624 174.83 38.2098 174.739C38.2583 174.646 38.2826 174.54 38.2826 174.421C38.2826 174.3 38.2583 174.195 38.2098 174.105C38.1624 174.014 38.0902 173.943 37.9932 173.894C37.8961 173.843 37.773 173.817 37.6238 173.817H37.1054V176.825H36.3366ZM39.5597 176.825V174.098H40.293V174.574H40.3214C40.3711 174.404 40.4545 174.276 40.5717 174.19C40.6889 174.102 40.8239 174.059 40.9766 174.059C41.0144 174.059 41.0553 174.061 41.0991 174.066C41.1429 174.071 41.1813 174.077 41.2145 174.085V174.756C41.179 174.746 41.1299 174.736 41.0671 174.728C41.0044 174.72 40.947 174.716 40.8949 174.716C40.7836 174.716 40.6842 174.74 40.5966 174.788C40.5102 174.836 40.4415 174.902 40.3906 174.987C40.3409 175.073 40.3161 175.171 40.3161 175.282V176.825H39.5597ZM42.7108 176.878C42.435 176.878 42.1965 176.82 41.9953 176.702C41.7952 176.584 41.6408 176.42 41.5319 176.209C41.423 175.997 41.3685 175.751 41.3685 175.472C41.3685 175.19 41.423 174.944 41.5319 174.733C41.6408 174.522 41.7952 174.357 41.9953 174.24C42.1965 174.121 42.435 174.062 42.7108 174.062C42.9867 174.062 43.2246 174.121 43.4246 174.24C43.6259 174.357 43.7809 174.522 43.8898 174.733C43.9987 174.944 44.0532 175.19 44.0532 175.472C44.0532 175.751 43.9987 175.997 43.8898 176.209C43.7809 176.42 43.6259 176.584 43.4246 176.702C43.2246 176.82 42.9867 176.878 42.7108 176.878ZM42.7144 176.292C42.8399 176.292 42.9446 176.257 43.0287 176.186C43.1127 176.114 43.176 176.015 43.2187 175.891C43.2625 175.767 43.2844 175.625 43.2844 175.467C43.2844 175.308 43.2625 175.167 43.2187 175.042C43.176 174.918 43.1127 174.82 43.0287 174.748C42.9446 174.675 42.8399 174.639 42.7144 174.639C42.5877 174.639 42.4812 174.675 42.3948 174.748C42.3096 174.82 42.2451 174.918 42.2013 175.042C42.1586 175.167 42.1373 175.308 42.1373 175.467C42.1373 175.625 42.1586 175.767 42.2013 175.891C42.2451 176.015 42.3096 176.114 42.3948 176.186C42.4812 176.257 42.5877 176.292 42.7144 176.292ZM44.545 174.098H45.3014V176.96C45.3014 177.171 45.26 177.341 45.1771 177.471C45.0943 177.602 44.9753 177.697 44.8202 177.757C44.6663 177.818 44.4823 177.848 44.268 177.848C44.242 177.848 44.2171 177.847 44.1934 177.846C44.1686 177.846 44.1425 177.845 44.1153 177.844V177.253C44.1354 177.254 44.1532 177.255 44.1686 177.255C44.1828 177.256 44.1982 177.256 44.2148 177.256C44.3367 177.256 44.4219 177.23 44.4704 177.178C44.5202 177.127 44.545 177.051 44.545 176.948V174.098ZM44.9214 173.746C44.8102 173.746 44.7143 173.709 44.6338 173.634C44.5533 173.559 44.5131 173.468 44.5131 173.363C44.5131 173.258 44.5533 173.169 44.6338 173.095C44.7143 173.019 44.8102 172.981 44.9214 172.981C45.0351 172.981 45.1315 173.019 45.2108 173.095C45.2913 173.169 45.3316 173.258 45.3316 173.363C45.3316 173.468 45.2913 173.559 45.2108 173.634C45.1315 173.709 45.0351 173.746 44.9214 173.746ZM47.1502 176.878C46.8697 176.878 46.6282 176.821 46.4258 176.708C46.2246 176.593 46.0695 176.431 45.9606 176.221C45.8517 176.011 45.7972 175.761 45.7972 175.474C45.7972 175.193 45.8517 174.947 45.9606 174.735C46.0695 174.523 46.2228 174.358 46.4205 174.24C46.6193 174.121 46.8525 174.062 47.12 174.062C47.3 174.062 47.4674 174.091 47.6225 174.149C47.7788 174.206 47.9149 174.292 48.0309 174.407C48.1481 174.522 48.2392 174.666 48.3043 174.84C48.3694 175.013 48.402 175.215 48.402 175.447V175.655H46.0991V175.186H47.69C47.69 175.077 47.6663 174.981 47.619 174.897C47.5716 174.813 47.5059 174.747 47.4219 174.7C47.339 174.651 47.2425 174.627 47.1325 174.627C47.0176 174.627 46.9158 174.653 46.8271 174.707C46.7395 174.759 46.6708 174.829 46.6211 174.918C46.5714 175.006 46.5459 175.103 46.5447 175.211V175.657C46.5447 175.792 46.5696 175.908 46.6193 176.006C46.6702 176.105 46.7418 176.18 46.8342 176.234C46.9265 176.287 47.036 176.314 47.1626 176.314C47.2467 176.314 47.3236 176.302 47.3935 176.278C47.4633 176.254 47.5231 176.219 47.5728 176.172C47.6225 176.124 47.6604 176.066 47.6864 175.998L48.386 176.044C48.3505 176.212 48.2777 176.359 48.1676 176.484C48.0587 176.608 47.9179 176.705 47.745 176.775C47.5734 176.844 47.3751 176.878 47.1502 176.878ZM50.1278 176.878C49.8485 176.878 49.6082 176.819 49.407 176.701C49.2069 176.581 49.053 176.415 48.9453 176.204C48.8388 175.992 48.7855 175.748 48.7855 175.472C48.7855 175.193 48.8394 174.948 48.9471 174.737C49.056 174.525 49.2105 174.36 49.4105 174.242C49.6106 174.122 49.8485 174.062 50.1243 174.062C50.3622 174.062 50.5705 174.105 50.7493 174.192C50.928 174.278 51.0695 174.4 51.1737 174.556C51.2778 174.712 51.3352 174.896 51.3459 175.106H50.6321C50.612 174.97 50.5587 174.861 50.4723 174.778C50.3871 174.694 50.2752 174.652 50.1367 174.652C50.0195 174.652 49.9171 174.684 49.8295 174.748C49.7431 174.81 49.6757 174.902 49.6271 175.023C49.5786 175.144 49.5543 175.29 49.5543 175.461C49.5543 175.635 49.578 175.783 49.6254 175.905C49.6739 176.027 49.742 176.12 49.8295 176.184C49.9171 176.248 50.0195 176.28 50.1367 176.28C50.2231 176.28 50.3007 176.262 50.3693 176.227C50.4392 176.191 50.4966 176.14 50.5415 176.072C50.5877 176.004 50.6179 175.921 50.6321 175.825H51.3459C51.334 176.034 51.2772 176.217 51.1754 176.376C51.0748 176.533 50.9357 176.656 50.7582 176.745C50.5806 176.834 50.3705 176.878 50.1278 176.878ZM53.2808 174.098V174.666H51.6384V174.098H53.2808ZM52.0113 173.444H52.7677V175.987C52.7677 176.057 52.7783 176.111 52.7996 176.15C52.8209 176.188 52.8505 176.215 52.8884 176.23C52.9275 176.246 52.9724 176.253 53.0233 176.253C53.0589 176.253 53.0944 176.25 53.1299 176.244C53.1654 176.237 53.1926 176.232 53.2116 176.228L53.3305 176.791C53.2926 176.803 53.2394 176.817 53.1707 176.832C53.1021 176.849 53.0186 176.859 52.9204 176.862C52.7381 176.869 52.5783 176.845 52.441 176.79C52.3048 176.734 52.1989 176.647 52.1231 176.53C52.0474 176.413 52.0101 176.265 52.0113 176.086V173.444Z" fill="black"/>
</g>
<defs>
<clipPath id="clip0_248_156">
<rect width="139" height="174" fill="white"/>
</clipPath>
</defs>
</svg>
