<svg width="75" height="88" viewBox="0 0 75 88" fill="none" xmlns="http://www.w3.org/2000/svg">
<g id="24">
<path id="Vector" d="M52.6226 66.3558C52.5595 66.2269 52.4614 66.1182 52.3397 66.0423C52.2179 65.9665 52.0772 65.9264 51.9338 65.9267H49.0869V61.88C49.097 61.7269 49.097 61.5733 49.0869 61.4202V49.8474C49.0923 48.0988 48.4208 46.4161 47.2135 45.1528C46.0062 43.8894 44.3571 43.1438 42.6124 43.0724C41.7211 43.0345 40.8316 43.1809 39.9994 43.5027C39.1672 43.8245 38.4102 44.3146 37.7757 44.9424C37.0677 45.6229 36.5037 46.439 36.1172 47.3422C35.7306 48.2455 35.5295 49.2173 35.5256 50.2V50.2919H34.7297C33.9628 50.2941 33.2053 50.123 32.5136 49.7912C31.8219 49.4595 31.2139 48.9757 30.7348 48.3759L27.6736 44.5592C27.632 44.5182 27.5858 44.4822 27.5359 44.4519L25.041 40.7119C24.9465 40.5678 24.8063 40.4598 24.643 40.4053L20.9083 39.1637C20.7763 39.1194 20.6348 39.112 20.4989 39.1423C20.363 39.1726 20.238 39.2395 20.1372 39.3357C20.0364 39.4318 19.9638 39.5537 19.927 39.6882C19.8903 39.8226 19.8909 39.9646 19.9287 40.0987L22.4236 48.8358C22.4601 48.9659 22.5302 49.0841 22.627 49.1783C22.7238 49.2725 22.8437 49.3394 22.9746 49.3723L25.0257 52.4379C25.8988 53.7502 27.0823 54.8259 28.4709 55.5694C29.8596 56.3128 31.4102 56.7009 32.9848 56.6991H35.495V61.1136H29.3726C28.5515 61.1168 27.7395 61.2854 26.9849 61.6093C26.2302 61.9332 25.5483 62.4058 24.9797 62.999C24.4619 63.5265 24.0586 64.1556 23.7952 64.8467C23.5318 65.5379 23.414 66.276 23.4491 67.015C23.5312 68.4382 24.1543 69.776 25.1904 70.7537C26.2265 71.7314 27.597 72.2749 29.0205 72.2725H54.3369C54.4669 72.2728 54.5949 72.2398 54.7087 72.1768C54.8226 72.1138 54.9185 72.0228 54.9874 71.9123C55.0563 71.8019 55.096 71.6756 55.1027 71.5456C55.1094 71.4155 55.0829 71.2858 55.0257 71.1689L52.6226 66.3558ZM21.7961 40.9878L23.9083 41.6929L25.9134 44.7585L23.541 47.1344L21.7961 40.9878ZM26.3879 51.5182L24.5359 48.7438L27.092 46.184L29.6022 49.3263C30.223 50.1075 31.0122 50.7381 31.9108 51.1708C32.8093 51.6034 33.7939 51.827 34.791 51.8248H38.9542C39.2278 51.8262 39.4981 51.8841 39.7483 51.9949C39.9984 52.1057 40.2231 52.2669 40.4083 52.4685C40.5534 52.6264 40.6639 52.8131 40.7324 53.0164C40.801 53.2197 40.8261 53.4351 40.8063 53.6488C40.7694 54.0251 40.595 54.3745 40.3165 54.6298C40.1689 54.785 39.9905 54.9074 39.7928 54.9893C39.5951 55.0711 39.3824 55.1105 39.1685 55.105H33.0461C31.7172 55.1101 30.4079 54.7852 29.2352 54.1592C28.0626 53.5332 27.0632 52.6258 26.3267 51.5182H26.3879ZM26.2195 69.5441C25.5186 68.8388 25.0994 67.9011 25.041 66.9077C25.0141 66.3783 25.0968 65.849 25.2838 65.3531C25.4708 64.8573 25.7581 64.4054 26.1277 64.026C26.5522 63.5841 27.0607 63.2317 27.6232 62.9895C28.1857 62.7473 28.7909 62.6203 29.4032 62.6158H36.3063C36.5092 62.6158 36.7039 62.535 36.8474 62.3913C36.9909 62.2476 37.0716 62.0526 37.0716 61.8494V56.6378H39.9185C40.7 56.6351 41.4532 56.3446 42.0346 55.8217C42.6161 55.2987 42.9852 54.5799 43.0716 53.8021C43.1133 53.3759 43.0654 52.9456 42.931 52.539C42.7965 52.1324 42.5785 51.7586 42.291 51.4416C41.9639 51.0797 41.5647 50.7904 41.1192 50.5924C40.6737 50.3944 40.1916 50.292 39.7042 50.2919H37.0563V50.2C37.0584 49.4237 37.2167 48.6557 37.5218 47.942C37.8269 47.2283 38.2724 46.5835 38.8318 46.0461C39.3198 45.5676 39.8997 45.1932 40.5364 44.9455C41.173 44.6979 41.8532 44.5821 42.5359 44.6052C43.884 44.6645 45.1572 45.2428 46.0898 46.2196C47.0224 47.1964 47.5423 48.496 47.541 49.8474V61.5275C47.5479 61.6193 47.5479 61.7115 47.541 61.8034C47.5388 61.834 47.5388 61.8647 47.541 61.8954V65.942H30.291C30.088 65.942 29.8933 66.0227 29.7498 66.1665C29.6063 66.3102 29.5257 66.5051 29.5257 66.7084C29.5257 66.9117 29.6063 67.1066 29.7498 67.2503C29.8933 67.3941 30.088 67.4748 30.291 67.4748H47.5563V70.755H29.0818C28.5486 70.7515 28.0214 70.6427 27.5303 70.4349C27.0391 70.2271 26.5937 69.9244 26.2195 69.5441ZM49.0869 70.7244V67.4748H51.4593L53.0971 70.755L49.0869 70.7244Z" fill="black"/>
<path id="Vector_2" d="M41.8623 43.0721C42.2416 43.0716 42.6204 43.0409 42.9949 42.9801C44.2763 42.7744 45.475 42.2151 46.4565 41.3649C47.4379 40.5147 48.1633 39.4073 48.551 38.1671C48.7504 37.4901 48.8534 36.7883 48.8571 36.0825C48.8571 34.2226 48.1194 32.4389 46.8062 31.1238C45.4929 29.8087 43.7118 29.0698 41.8546 29.0698C39.9974 29.0698 38.2163 29.8087 36.9031 31.1238C35.5898 32.4389 34.8521 34.2226 34.8521 36.0825C34.8539 36.7934 34.957 37.5006 35.1582 38.1824C35.6066 39.6082 36.4997 40.8525 37.7063 41.7326C38.913 42.6127 40.3696 43.0821 41.8623 43.0721ZM40.9898 41.5393H40.7143L40.1633 41.4013L39.8418 41.2634L39.398 41.0794L39.0306 40.7422L38.6633 40.5123L38.3265 40.2364L38.0357 39.9911C37.9286 39.8838 37.8214 39.7612 37.7143 39.6386L37.5 39.3473C37.4082 39.2247 37.3163 39.0868 37.2398 38.9488L37.0408 38.6269C37.0408 38.489 36.9184 38.351 36.8572 38.2131L36.7347 37.9065C37.1218 36.8525 37.8224 35.9428 38.7421 35.3002C39.6617 34.6576 40.7562 34.313 41.8776 34.313C42.999 34.313 44.0934 34.6576 45.013 35.3002C45.9327 35.9428 46.6334 36.8525 47.0204 37.9065L46.898 38.2131C46.898 38.351 46.7908 38.4736 46.7143 38.6116C46.6378 38.7495 46.5612 38.8568 46.4847 38.9795L46.2551 39.3167L45.9643 39.6539L45.7041 39.9451L45.3674 40.2364L45.0765 40.4816L44.6786 40.7269L44.3572 40.9108L43.898 41.1101L43.5765 41.2327L43.0255 41.3707H42.75C42.1721 41.4635 41.5831 41.4635 41.0051 41.3707L40.9898 41.5393ZM41.8623 30.6563C43.1868 30.6601 44.4649 31.1456 45.4588 32.0225C46.4527 32.8994 47.0946 34.1079 47.2653 35.4233C46.6107 34.6217 45.7864 33.9757 44.8519 33.5321C43.9175 33.0885 42.8963 32.8584 41.8623 32.8584C40.8282 32.8584 39.807 33.0885 38.8726 33.5321C37.9381 33.9757 37.1138 34.6217 36.4592 35.4233C36.6126 34.094 37.2472 32.8671 38.2428 31.9746C39.2384 31.082 40.526 30.5858 41.8623 30.5796V30.6563Z" fill="black"/>
<path id="Vector_3" d="M72.7041 31.8979L38.0204 0H37.9133H37.7908H37.6378H37.3622H37.2092H37.0867H36.9796L2.29592 31.8979C1.58086 32.5396 1.00735 33.3236 0.612018 34.1999C0.216689 35.0761 0.00824331 36.0253 0 36.9868V37.3547C0.00415593 39.0498 0.630115 40.6844 1.7589 41.9476C2.88768 43.2108 4.44059 44.0147 6.12245 44.2064V86.4048C6.12245 86.608 6.20308 86.803 6.3466 86.9467C6.49012 87.0904 6.68478 87.1712 6.88775 87.1712H68.1122C68.3152 87.1712 68.5099 87.0904 68.6534 86.9467C68.7969 86.803 68.8775 86.608 68.8775 86.4048V44.2064C70.5594 44.0147 72.1123 43.2108 73.2411 41.9476C74.3699 40.6844 74.9958 39.0498 75 37.3547V36.9868C74.9918 36.0253 74.7833 35.0761 74.388 34.1999C73.9927 33.3236 73.4191 32.5396 72.7041 31.8979ZM73.4694 37.3547C73.4694 38.7775 72.905 40.1421 71.9003 41.1482C70.8957 42.1543 69.5331 42.7195 68.1122 42.7195C67.9093 42.7195 67.7146 42.8003 67.5711 42.944C67.4276 43.0877 67.3469 43.2827 67.3469 43.4859V85.6383H7.65306V43.4859C7.65306 43.2827 7.57243 43.0877 7.42891 42.944C7.28539 42.8003 7.09073 42.7195 6.88775 42.7195C5.46695 42.7195 4.10434 42.1543 3.09968 41.1482C2.09502 40.1421 1.53061 38.7775 1.53061 37.3547V36.9868C1.53058 36.2438 1.68425 35.5088 1.98193 34.8281C2.27961 34.1475 2.71484 33.536 3.2602 33.0322L37.5 1.60945L71.7398 33.0322C72.2852 33.536 72.7204 34.1475 73.0181 34.8281C73.3158 35.5088 73.4694 36.2438 73.4694 36.9868V37.3547Z" fill="black"/>
<path id="Vector_4" d="M38.0207 8.93604H37.9135H37.7911H37.638H37.3625H37.2095H37.087H36.9799L9.42885 34.1815C8.85581 34.7076 8.39805 35.347 8.08453 36.0594C7.771 36.7718 7.60854 37.5416 7.60742 38.3201V38.6113C7.60956 39.969 8.10192 41.2801 8.99367 42.3027C9.88542 43.3253 11.1164 43.9905 12.4595 44.1754V80.5032C12.4595 80.7064 12.5401 80.9014 12.6836 81.0451C12.8271 81.1888 13.0218 81.2696 13.2248 81.2696H61.7299C61.9328 81.2696 62.1275 81.1888 62.271 81.0451C62.4145 80.9014 62.4952 80.7064 62.4952 80.5032V44.2061C63.8383 44.0211 65.0692 43.356 65.961 42.3334C66.8527 41.3107 67.3451 39.9997 67.3472 38.642V38.3507C67.3461 37.5722 67.1836 36.8024 66.8701 36.0901C66.5566 35.3777 66.0988 34.7382 65.5258 34.2122L38.0207 8.93604ZM65.8166 38.6267C65.8166 39.7121 65.386 40.7531 64.6196 41.5206C63.8532 42.2881 62.8137 42.7193 61.7299 42.7193C61.5269 42.7193 61.3322 42.8 61.1887 42.9437C61.0452 43.0875 60.9646 43.2824 60.9646 43.4857V79.7674H14.036V43.4857C14.036 43.2824 13.9554 43.0875 13.8118 42.9437C13.6683 42.8 13.4737 42.7193 13.2707 42.7193C12.1868 42.7193 11.1473 42.2881 10.3809 41.5206C9.61452 40.7531 9.18395 39.7121 9.18395 38.6267V38.3354C9.17795 37.7594 9.29347 37.1885 9.52294 36.6602C9.75241 36.132 10.0907 35.6581 10.5156 35.2698L37.5003 10.5455L64.485 35.3311C64.9099 35.7195 65.2481 36.1933 65.4776 36.7215C65.7071 37.2498 65.8226 37.8207 65.8166 38.3967V38.6267Z" fill="black"/>
<path id="Vector_5" d="M53.5254 28.4799C53.451 28.4115 53.3639 28.3584 53.269 28.3237C53.1742 28.2889 53.0734 28.2733 52.9725 28.2775C52.8716 28.2818 52.7725 28.3059 52.6809 28.3486C52.5893 28.3912 52.507 28.4515 52.4386 28.5259C52.3703 28.6004 52.3173 28.6876 52.2826 28.7826C52.2479 28.8776 52.2323 28.9785 52.2365 29.0796C52.2408 29.1807 52.2649 29.2799 52.3074 29.3716C52.35 29.4634 52.4102 29.5458 52.4846 29.6142L58.7141 35.347C59.1363 35.7367 59.4717 36.2111 59.6985 36.7393C59.9253 37.2675 60.0384 37.8377 60.0305 38.4126V38.7038C60.03 39.0397 59.9889 39.3742 59.908 39.7001C59.883 39.7988 59.8778 39.9015 59.8928 40.0022C59.9078 40.1029 59.9426 40.1996 59.9954 40.2866C60.0481 40.3737 60.1176 40.4493 60.1998 40.5092C60.2821 40.569 60.3754 40.6118 60.4743 40.6352H60.658C60.8303 40.6368 60.998 40.5801 61.1341 40.4744C61.2702 40.3687 61.3667 40.2201 61.408 40.0527C61.5192 39.6065 61.5757 39.1484 61.5764 38.6885V38.3973C61.5753 37.6188 61.4128 36.849 61.0993 36.1366C60.7858 35.4242 60.328 34.7847 59.755 34.2587L53.5254 28.4799Z" fill="#FE7D02"/>
<path id="Vector_6" d="M48.138 25.5981C48.2795 25.729 48.4658 25.8003 48.6584 25.7974C48.8133 25.7985 48.965 25.7526 49.0933 25.6655C49.2216 25.5785 49.3205 25.4545 49.3769 25.31C49.4333 25.1654 49.4445 25.0071 49.4092 24.8561C49.3738 24.705 49.2935 24.5682 49.1788 24.4638L43.3012 19.0683C43.1511 18.9301 42.9522 18.8573 42.7484 18.8659C42.5446 18.8745 42.3525 18.9639 42.2145 19.1143C42.0765 19.2647 42.0038 19.4639 42.0124 19.668C42.021 19.8721 42.1102 20.0644 42.2604 20.2026L48.138 25.5981Z" fill="#FE7D02"/>
<path id="Vector_7" d="M38.4489 16.7079C38.5991 16.8461 38.798 16.9189 39.0018 16.9103C39.2056 16.9017 39.3977 16.8123 39.5357 16.6619C39.6737 16.5115 39.7464 16.3123 39.7378 16.1082C39.7292 15.9041 39.64 15.7118 39.4898 15.5736L38.2959 14.4853C38.1457 14.3471 37.9468 14.2743 37.743 14.2829C37.5392 14.2915 37.3472 14.3809 37.2091 14.5313C37.0711 14.6817 36.9984 14.8809 37.007 15.085C37.0156 15.2891 37.1049 15.4814 37.2551 15.6196L38.4489 16.7079Z" fill="black"/>
</g>
</svg>
