<svg width="87" height="89" viewBox="0 0 87 89" fill="none" xmlns="http://www.w3.org/2000/svg">
<g id="Group">
<g id="Group_2">
<g id="Group_3">
<path id="Vector" fill-rule="evenodd" clip-rule="evenodd" d="M63.6597 88.8864H29.7073C29.1234 88.8864 28.6489 88.4186 28.6489 87.8433V75.2937C28.6489 74.7126 29.1234 74.2504 29.7073 74.2504L63.6597 74.2476C64.2434 74.2476 64.7179 74.7153 64.7179 75.2908V87.8404C64.7179 88.4186 64.2434 88.8864 63.6597 88.8864ZM30.7685 86.7942H62.5954V76.3368H30.7685V86.7942Z" fill="black"/>
</g>
<g id="Group_4">
<path id="Vector_2" fill-rule="evenodd" clip-rule="evenodd" d="M29.7073 50.1896C29.1234 50.1896 28.6489 49.7217 28.6489 49.1464V36.5968C28.6489 36.0157 29.1234 35.5537 29.7073 35.5537C30.291 35.5537 30.7655 36.0214 30.7655 36.5968V49.1464C30.7684 49.7275 30.291 50.1896 29.7073 50.1896Z" fill="black"/>
</g>
<g id="Group_5">
<path id="Vector_3" fill-rule="evenodd" clip-rule="evenodd" d="M38.1939 36.5965C37.6102 36.5965 37.1357 36.1288 37.1357 35.5534V14.6385C37.1357 14.0574 37.6102 13.5952 38.1939 13.5952C38.7779 13.5952 39.2523 14.0629 39.2523 14.6385V35.5534C39.258 36.1316 38.7835 36.5965 38.1939 36.5965Z" fill="black"/>
</g>
<g id="Group_6">
<path id="Vector_4" fill-rule="evenodd" clip-rule="evenodd" d="M46.6837 36.5965C46.1 36.5965 45.6255 36.1288 45.6255 35.5534V24.047C45.6255 23.4659 46.1 23.0039 46.6837 23.0039C47.2676 23.0039 47.7421 23.4716 47.7421 24.047V35.5534C47.7421 36.1317 47.2676 36.5965 46.6837 36.5965Z" fill="black"/>
</g>
<g id="Group_7">
<path id="Vector_5" fill-rule="evenodd" clip-rule="evenodd" d="M29.7075 20.9117H21.2181C20.6342 20.9117 20.1597 20.444 20.1597 19.8686V14.6384C20.1597 14.0573 20.6342 13.5952 21.2181 13.5952L29.7075 13.5923C30.2912 13.5923 30.7657 14.06 30.7657 14.6356V19.8657C30.7687 20.444 30.2913 20.9117 29.7075 20.9117ZM22.2821 18.8196H28.6492V15.6815H22.2821V18.8196Z" fill="#FE7D02"/>
</g>
<g id="Group_8">
<path id="Vector_6" fill-rule="evenodd" clip-rule="evenodd" d="M60.476 20.9117H38.1939C37.6102 20.9117 37.1357 20.444 37.1357 19.8686V14.6384C37.1357 14.0573 37.6102 13.5952 38.1939 13.5952L60.476 13.5923C61.0599 13.5923 61.5344 14.06 61.5344 14.6356V19.8657C61.5344 20.444 61.0599 20.9117 60.476 20.9117ZM39.258 18.8196H59.4178V15.6815H39.258V18.8196Z" fill="black"/>
</g>
<g id="Group_9">
<path id="Vector_7" fill-rule="evenodd" clip-rule="evenodd" d="M63.6599 76.3369H29.7075C29.3135 76.3369 28.9541 76.1242 28.77 75.7814L20.2805 60.0938C20.2 59.9435 20.1567 59.7706 20.1567 59.6004V36.5935C20.1567 33.7078 22.5352 31.3635 25.4627 31.3635C26.6563 31.3635 27.7605 31.7519 28.6462 32.4123V14.6298C28.6462 11.7439 31.0247 9.39963 33.9522 9.39963C35.1458 9.39963 36.2499 9.78799 37.1359 10.4487V8.35368C37.1359 5.46784 39.5142 3.12354 42.4416 3.12354C45.3693 3.12354 47.7476 5.46785 47.7476 8.35368V14.6298C47.7476 15.2109 47.2731 15.6731 46.6894 15.6731C46.1055 15.6731 45.631 15.2054 45.631 14.6298V8.35368C45.631 6.62451 44.2046 5.21562 42.4474 5.21562C40.6932 5.21562 39.2639 6.62164 39.2639 8.35368V14.6298C39.2639 15.2109 38.7894 15.6731 38.2055 15.6731C37.6218 15.6731 37.1473 15.2054 37.1473 14.6298C37.1473 12.9006 35.7209 11.4917 33.9638 11.4917C32.2093 11.4917 30.7802 12.8977 30.7802 14.6298V36.5935C30.7802 37.1748 30.3055 37.6368 29.7218 37.6368C29.1379 37.6368 28.6634 37.1691 28.6634 36.5935C28.6634 34.8643 27.237 33.4555 25.4799 33.4555C23.7257 33.4555 22.2964 34.8615 22.2964 36.5935V59.3397L30.3631 74.2421L62.6157 74.2364V31.3578C62.6157 29.6287 61.1893 28.2198 59.4322 28.2198C57.678 28.2198 56.2487 29.6258 56.2487 31.3578C56.2487 31.9389 55.7742 32.4009 55.1903 32.4009C54.6066 32.4009 54.1321 31.9332 54.1321 31.3578V28.2198C54.1321 26.4906 52.7057 25.0817 50.9485 25.0817C49.1941 25.0817 47.7648 26.4877 47.7648 28.2198C47.7648 28.8009 47.2903 29.2629 46.7066 29.2629C46.1227 29.2629 45.6482 28.7951 45.6482 28.2198V19.8571C45.6482 19.276 46.1227 18.814 46.7066 18.814C47.2903 18.814 47.7648 19.2817 47.7648 19.8571V24.0442C48.6505 23.3893 49.7549 22.9952 50.9485 22.9952C53.5367 22.9952 55.6964 24.8322 56.1623 27.253C57.0624 26.553 58.2043 26.1334 59.438 26.1334C62.3655 26.1334 64.744 28.4777 64.744 31.3636V75.2852C64.718 75.8663 64.2436 76.3369 63.6599 76.3369Z" fill="black"/>
</g>
<g id="Group_10">
<path id="Vector_8" fill-rule="evenodd" clip-rule="evenodd" d="M78.5105 29.2769C73.8286 29.2769 70.021 25.5237 70.021 20.9087C70.021 16.2937 73.8286 12.5405 78.5105 12.5405C83.1924 12.5405 87.0002 16.2937 87.0002 20.9087C87.0002 25.5237 83.1924 29.2769 78.5105 29.2769ZM78.5105 14.6355C74.9991 14.6355 72.1434 17.4504 72.1434 20.9116C72.1434 24.3728 74.9991 27.1877 78.5105 27.1877C82.022 27.1877 84.8778 24.3728 84.8778 20.9116C84.8778 17.4504 82.0221 14.6355 78.5105 14.6355Z" fill="#FE7D02"/>
</g>
<g id="Group_11">
<path id="Vector_9" fill-rule="evenodd" clip-rule="evenodd" d="M6.36707 71.1093C2.8557 71.1093 0 68.2944 0 64.8332C0 61.372 2.85569 58.5571 6.36707 58.5571C9.87844 58.5571 12.7341 61.372 12.7341 64.8332C12.7341 68.2944 9.87844 71.1093 6.36707 71.1093ZM6.36707 60.6519C4.02893 60.6519 2.12513 62.5285 2.12513 64.8333C2.12513 67.138 4.02893 69.0146 6.36707 69.0146C8.70521 69.0146 10.609 67.138 10.609 64.8333C10.609 62.5285 8.70521 60.6519 6.36707 60.6519Z" fill="black"/>
</g>
<g id="Group_12">
<path id="Vector_10" fill-rule="evenodd" clip-rule="evenodd" d="M54.109 9.40573C53.5253 9.40573 53.0508 8.93801 53.0508 8.36244V1.04328C53.0508 0.461974 53.5253 0 54.109 0C54.6929 0 55.1674 0.467714 55.1674 1.04328V8.36244C55.1703 8.93801 54.6929 9.40573 54.109 9.40573Z" fill="black"/>
</g>
<g id="Group_13">
<path id="Vector_11" fill-rule="evenodd" clip-rule="evenodd" d="M58.3509 11.5006C57.767 11.5006 57.2925 11.0327 57.2925 10.4573V6.27599C57.2925 5.69488 57.767 5.23291 58.3509 5.23291C58.9346 5.23291 59.4091 5.70062 59.4091 6.27599V10.4573C59.4178 11.03 58.9404 11.5006 58.3509 11.5006Z" fill="black"/>
</g>
<g id="Group_14">
<path id="Vector_12" fill-rule="evenodd" clip-rule="evenodd" d="M55.1702 36.5963C54.5863 36.5963 54.1118 36.1286 54.1118 35.5532V31.3719C54.1118 30.7908 54.5863 30.3286 55.1702 30.3286C55.7539 30.3286 56.2284 30.7965 56.2284 31.3719V35.5532C56.2342 36.1315 55.7568 36.5963 55.1702 36.5963Z" fill="black"/>
</g>
</g>
</g>
</svg>
