<svg width="112" height="138" viewBox="0 0 112 138" fill="none" xmlns="http://www.w3.org/2000/svg">
<g clip-path="url(#clip0_248_53)">
<path fill-rule="evenodd" clip-rule="evenodd" d="M81.0392 110.399H38.8693C38.144 110.399 37.5547 109.818 37.5547 109.104V93.5168C37.5547 92.7951 38.144 92.221 38.8693 92.221L81.0392 92.2175C81.7642 92.2175 82.3535 92.7984 82.3535 93.5133V109.1C82.3535 109.818 81.7642 110.399 81.0392 110.399ZM40.1872 107.801H79.7174V94.8124H40.1872V107.801Z" fill="black"/>
<path fill-rule="evenodd" clip-rule="evenodd" d="M38.8693 62.3364C38.144 62.3364 37.5547 61.7552 37.5547 61.0406V45.4536C37.5547 44.7318 38.144 44.1581 38.8693 44.1581C39.5942 44.1581 40.1836 44.739 40.1836 45.4536V61.0406C40.1872 61.7623 39.5942 62.3364 38.8693 62.3364Z" fill="black"/>
<path fill-rule="evenodd" clip-rule="evenodd" d="M49.41 45.4536C48.685 45.4536 48.0957 44.8726 48.0957 44.158V18.181C48.0957 17.4593 48.685 16.8852 49.41 16.8852C50.1353 16.8852 50.7246 17.4662 50.7246 18.181V44.158C50.7316 44.8762 50.1422 45.4536 49.41 45.4536Z" fill="black"/>
<path fill-rule="evenodd" clip-rule="evenodd" d="M59.954 45.4536C59.229 45.4536 58.6396 44.8726 58.6396 44.158V29.8666C58.6396 29.1449 59.229 28.5711 59.954 28.5711C60.6792 28.5711 61.2685 29.152 61.2685 29.8666V44.158C61.2685 44.8762 60.6792 45.4536 59.954 45.4536Z" fill="black"/>
<path fill-rule="evenodd" clip-rule="evenodd" d="M38.8695 25.9726H28.3253C27.6001 25.9726 27.0107 25.3917 27.0107 24.6771V18.1811C27.0107 17.4593 27.6001 16.8853 28.3253 16.8853L38.8695 16.8817C39.5945 16.8817 40.1838 17.4626 40.1838 18.1775V24.6735C40.1875 25.3917 39.5945 25.9726 38.8695 25.9726ZM29.6469 23.3742H37.555V19.4766H29.6469V23.3742Z" fill="#FF4545"/>
<path fill-rule="evenodd" clip-rule="evenodd" d="M77.085 25.9726H49.41C48.685 25.9726 48.0957 25.3917 48.0957 24.6771V18.1811C48.0957 17.4593 48.685 16.8853 49.41 16.8853L77.085 16.8817C77.8103 16.8817 78.3996 17.4626 78.3996 18.1775V24.6735C78.3996 25.3917 77.8103 25.9726 77.085 25.9726ZM50.7316 23.3742H75.7707V19.4766H50.7316V23.3742Z" fill="black"/>
<path fill-rule="evenodd" clip-rule="evenodd" d="M81.0392 94.8128H38.8692C38.3799 94.8128 37.9334 94.5487 37.7048 94.1229L27.1606 74.6384C27.0606 74.4517 27.0068 74.237 27.0068 74.0256V45.4502C27.0068 41.8661 29.961 38.9545 33.597 38.9545C35.0795 38.9545 36.4509 39.4368 37.551 40.2571V18.1706C37.551 14.5863 40.5052 11.6746 44.1412 11.6746C45.6237 11.6746 46.9951 12.1569 48.0955 12.9775V10.3755C48.0955 6.79117 51.0494 3.87947 54.6854 3.87947C58.3217 3.87947 61.2756 6.79118 61.2756 10.3755V18.1706C61.2756 18.8924 60.6862 19.4664 59.9612 19.4664C59.236 19.4664 58.6467 18.8855 58.6467 18.1706V10.3755C58.6467 8.22779 56.875 6.47791 54.6926 6.47791C52.5138 6.47791 50.7386 8.22423 50.7386 10.3755V18.1706C50.7386 18.8924 50.1492 19.4664 49.424 19.4664C48.699 19.4664 48.1097 18.8855 48.1097 18.1706C48.1097 16.0229 46.338 14.273 44.1556 14.273C41.9765 14.273 40.2016 16.0194 40.2016 18.1706V45.4503C40.2016 46.1723 39.612 46.7461 38.887 46.7461C38.1617 46.7461 37.5724 46.1652 37.5724 45.4503C37.5724 43.3026 35.8008 41.5527 33.6184 41.5527C31.4396 41.5527 29.6643 43.299 29.6643 45.4503V73.7017L39.6835 92.2111L79.7423 92.204V38.9474C79.7423 36.7997 77.9707 35.0498 75.7882 35.0498C73.6094 35.0498 71.8342 36.7961 71.8342 38.9474C71.8342 39.6692 71.2448 40.2429 70.5196 40.2429C69.7946 40.2429 69.2053 39.662 69.2053 38.9474V35.0498C69.2053 32.9021 67.4337 31.1523 65.2512 31.1523C63.0722 31.1523 61.2969 32.8986 61.2969 35.0498C61.2969 35.7716 60.7076 36.3454 59.9826 36.3454C59.2574 36.3454 58.668 35.7645 58.668 35.0498V24.6631C58.668 23.9414 59.2574 23.3676 59.9826 23.3676C60.7076 23.3676 61.2969 23.9485 61.2969 24.6631V29.8636C62.3971 29.0502 63.7687 28.5607 65.2512 28.5607C68.4658 28.5607 71.1482 30.8423 71.727 33.849C72.8449 32.9796 74.2631 32.4585 75.7955 32.4585C79.4315 32.4585 82.3856 35.3702 82.3856 38.9545V93.5067C82.3533 94.2284 81.7641 94.8128 81.0392 94.8128Z" fill="black"/>
<path fill-rule="evenodd" clip-rule="evenodd" d="M99.4837 36.3627C93.6686 36.3627 88.9395 31.7011 88.9395 25.9691C88.9395 20.2371 93.6686 15.5755 99.4837 15.5755C105.299 15.5755 110.028 20.2371 110.028 25.9691C110.028 31.7011 105.299 36.3627 99.4837 36.3627ZM99.4837 18.1775C95.1224 18.1775 91.5756 21.6737 91.5756 25.9726C91.5756 30.2716 95.1224 33.7678 99.4837 33.7678C103.845 33.7678 107.392 30.2716 107.392 25.9726C107.392 21.6737 103.845 18.1775 99.4837 18.1775Z" fill="#FF4545"/>
<path fill-rule="evenodd" clip-rule="evenodd" d="M9.87979 88.3201C5.51855 88.3201 1.97168 84.8239 1.97168 80.525C1.97168 76.2261 5.51854 72.7299 9.87979 72.7299C14.241 72.7299 17.7879 76.226 17.7879 80.525C17.7879 84.8239 14.241 88.3201 9.87979 88.3201ZM9.87979 75.3317C6.97574 75.3317 4.61116 77.6625 4.61116 80.525C4.61116 83.3876 6.97574 85.7184 9.87979 85.7184C12.7838 85.7184 15.1484 83.3876 15.1484 80.525C15.1484 77.6625 12.7838 75.3317 9.87979 75.3317Z" fill="black"/>
<path fill-rule="evenodd" clip-rule="evenodd" d="M69.1766 11.6815C68.4516 11.6815 67.8623 11.1006 67.8623 10.3857V1.29508C67.8623 0.57307 68.4516 -0.000717163 69.1766 -0.000717163C69.9019 -0.000717163 70.4912 0.580199 70.4912 1.29508V10.3857C70.4948 11.1006 69.9019 11.6815 69.1766 11.6815Z" fill="black"/>
<path fill-rule="evenodd" clip-rule="evenodd" d="M74.4454 14.2835C73.7202 14.2835 73.1309 13.7023 73.1309 12.9877V7.79435C73.1309 7.0726 73.7202 6.49881 74.4454 6.49881C75.1704 6.49881 75.7597 7.07973 75.7597 7.79435V12.9877C75.7706 13.699 75.1776 14.2835 74.4454 14.2835Z" fill="black"/>
<path fill-rule="evenodd" clip-rule="evenodd" d="M70.4943 45.4536C69.769 45.4536 69.1797 44.8726 69.1797 44.158V38.9647C69.1797 38.2429 69.769 37.6689 70.4943 37.6689C71.2192 37.6689 71.8086 38.25 71.8086 38.9647V44.158C71.8158 44.8762 71.2229 45.4536 70.4943 45.4536Z" fill="black"/>
</g>
<defs>
<clipPath id="clip0_248_53">
<rect width="112" height="138" fill="white"/>
</clipPath>
</defs>
</svg>
