<svg width="85" height="85" viewBox="0 0 85 85" fill="none" xmlns="http://www.w3.org/2000/svg">
<g id="Group">
<g id="Group_2">
<path id="Vector" d="M63.3562 64.9761C62.9828 64.9761 62.6246 65.1249 62.3606 65.3898C62.0966 65.6547 61.9482 66.014 61.9482 66.3886V83.3389C61.9482 83.7135 62.0966 84.0728 62.3606 84.3377C62.6246 84.6026 62.9828 84.7514 63.3562 84.7514C63.7296 84.7514 64.0877 84.6026 64.3517 84.3377C64.6157 84.0728 64.7641 83.7135 64.7641 83.3389V66.3886C64.7641 66.014 64.6157 65.6547 64.3517 65.3898C64.0877 65.1249 63.7296 64.9761 63.3562 64.9761Z" fill="#FC8203"/>
<path id="Vector_2" d="M67.5796 25.4253C66.1873 25.4253 64.8263 25.8395 63.6686 26.6156C62.511 27.3916 61.6087 28.4946 61.0759 29.7852C60.5431 31.0757 60.4037 32.4958 60.6753 33.8658C60.9469 35.2358 61.6174 36.4942 62.6019 37.482C63.5864 38.4697 64.8407 39.1423 66.2062 39.4149C67.5718 39.6874 68.9872 39.5475 70.2735 39.0129C71.5598 38.4784 72.6593 37.5732 73.4328 36.4117C74.2063 35.2503 74.6191 33.8848 74.6191 32.4879C74.6169 30.6155 73.8745 28.8204 72.5548 27.4964C71.2352 26.1724 69.4459 25.4275 67.5796 25.4253ZM67.5796 36.7255C66.5844 36.7274 65.6207 36.3759 64.8592 35.7332C64.0976 35.0905 63.5873 34.1982 63.4187 33.2142C63.25 32.2302 63.434 31.2181 63.9378 30.3572C64.4417 29.4962 65.2331 28.8419 66.1717 28.5103V31.0754C66.1717 31.45 66.32 31.8093 66.5841 32.0742C66.8481 32.3391 67.2062 32.4879 67.5796 32.4879C67.953 32.4879 68.3111 32.3391 68.5751 32.0742C68.8392 31.8093 68.9875 31.45 68.9875 31.0754V28.5103C69.9261 28.8419 70.7175 29.4962 71.2214 30.3572C71.7252 31.2181 71.9091 32.2302 71.7405 33.2142C71.5719 34.1982 71.0616 35.0905 70.3 35.7332C69.5384 36.3759 68.5747 36.7274 67.5796 36.7255Z" fill="#FC8203"/>
<path id="Vector_3" d="M59.132 22.6008H74.619V24.0133C74.619 24.3879 74.7674 24.7472 75.0314 25.0121C75.2954 25.277 75.6536 25.4258 76.027 25.4258C76.4004 25.4258 76.7585 25.277 77.0225 25.0121C77.2865 24.7472 77.4349 24.3879 77.4349 24.0133V22.6008H78.8428C79.2162 22.6008 79.5743 22.452 79.8383 22.1871C80.1024 21.9222 80.2507 21.5629 80.2507 21.1883C80.2507 20.8136 80.1024 20.4544 79.8383 20.1895C79.5743 19.9246 79.2162 19.7757 78.8428 19.7757H77.4349V18.3632C77.4349 17.9886 77.2865 17.6293 77.0225 17.3644C76.7585 17.0995 76.4004 16.9507 76.027 16.9507C75.6536 16.9507 75.2954 17.0995 75.0314 17.3644C74.7674 17.6293 74.619 17.9886 74.619 18.3632V19.7757H59.132C58.7586 19.7757 58.4005 19.9246 58.1365 20.1895C57.8725 20.4544 57.7241 20.8136 57.7241 21.1883C57.7241 21.5629 57.8725 21.9222 58.1365 22.1871C58.4005 22.452 58.7586 22.6008 59.132 22.6008Z" fill="black"/>
<path id="Vector_4" d="M59.132 16.9505H67.5795C67.9529 16.9505 68.311 16.8017 68.575 16.5368C68.8391 16.2719 68.9874 15.9126 68.9874 15.538C68.9874 15.1634 68.8391 14.8041 68.575 14.5392C68.311 14.2743 67.9529 14.1255 67.5795 14.1255H59.132C58.7586 14.1255 58.4005 14.2743 58.1365 14.5392C57.8725 14.8041 57.7241 15.1634 57.7241 15.538C57.7241 15.9126 57.8725 16.2719 58.1365 16.5368C58.4005 16.8017 58.7586 16.9505 59.132 16.9505Z" fill="black"/>
<path id="Vector_5" d="M83.0667 8.47516H77.4351V1.41253C77.4351 1.0379 77.2867 0.678619 77.0227 0.413719C76.7587 0.148819 76.4006 0 76.0272 0H67.5797C67.2063 0 66.8482 0.148819 66.5842 0.413719C66.3201 0.678619 66.1718 1.0379 66.1718 1.41253V8.47516H18.3028C16.4365 8.4774 14.6473 9.22222 13.3276 10.5462C12.0079 11.8702 11.2655 13.6654 11.2633 15.5378V35.3132C11.2633 35.6878 11.4116 36.0471 11.6757 36.312C11.9397 36.5769 12.2978 36.7257 12.6712 36.7257H19.7107V39.5507H11.2633C10.3928 39.5544 9.54475 39.8277 8.83506 40.3334C8.12538 40.8391 7.58875 41.5524 7.29861 42.3758H1.40791C1.03451 42.3758 0.676402 42.5246 0.412367 42.7895C0.148333 43.0544 0 43.4137 0 43.7883C0.00223556 45.6608 0.744618 47.4559 2.06431 48.7799C3.38399 50.1039 5.17323 50.8487 7.03955 50.851H7.47037C7.58864 51.447 7.7238 52.0417 7.89275 52.6279L8.38692 54.3625C9.31657 57.6362 9.37337 61.0973 8.55165 64.3999C7.52553 68.504 7.69015 72.8168 9.02611 76.8301L11.3393 83.7882C11.4573 84.1441 11.7114 84.4384 12.0457 84.6064C12.2112 84.6895 12.3914 84.7392 12.576 84.7525C12.7606 84.7657 12.9461 84.7424 13.1217 84.6838C13.2974 84.6252 13.4598 84.5324 13.5997 84.4108C13.7396 84.2892 13.8543 84.1412 13.9372 83.9751C14.0201 83.8091 14.0695 83.6283 14.0828 83.443C14.096 83.2578 14.0728 83.0718 14.0143 82.8955L11.7026 75.936C10.5375 72.4338 10.3939 68.6706 11.2886 65.0892C12.2311 61.3063 12.1665 57.3413 11.1014 53.5913L10.6072 51.8553C10.1112 50.1224 9.85816 48.3287 9.85537 46.5258V43.7883C9.85537 43.4137 10.0037 43.0544 10.2677 42.7895C10.5318 42.5246 10.8899 42.3758 11.2633 42.3758H14.0791V45.2008C14.0791 45.5755 14.2274 45.9348 14.4915 46.1997C14.7555 46.4646 15.1136 46.6134 15.487 46.6134C15.8604 46.6134 16.2185 46.4646 16.4826 46.1997C16.7466 45.9348 16.8949 45.5755 16.8949 45.2008V42.3758H35.3836L28.3947 52.8921C28.2648 53.0876 28.1855 53.3126 28.1641 53.5467C28.1427 53.7808 28.1799 54.0165 28.2722 54.2325L40.9434 83.8956C41.052 84.1496 41.2324 84.3661 41.4624 84.5183C41.6924 84.6704 41.9618 84.7516 42.2373 84.7516C42.4281 84.7524 42.617 84.7134 42.792 84.6372C43.1352 84.4895 43.4058 84.2112 43.5444 83.8634C43.683 83.5156 43.6783 83.1268 43.5312 82.7825L31.1613 53.8173L38.764 42.3758H43.4411L41.6544 55.8301C41.0843 60.1246 42.0922 64.4805 44.49 68.0838C45.8146 70.0825 46.6444 72.3697 46.9102 74.7551L47.8788 83.4944C47.9199 83.8668 48.1067 84.2076 48.3982 84.4417C48.6897 84.6759 49.062 84.7843 49.4331 84.7431C49.8043 84.7019 50.1439 84.5145 50.3774 84.222C50.6108 83.9296 50.7188 83.5561 50.6777 83.1837L49.7091 74.4401C49.3921 71.6062 48.4055 68.889 46.8313 66.5145C45.9465 65.1752 45.2819 63.702 44.8631 62.1512H81.6588V83.3391C81.6588 83.7137 81.8071 84.073 82.0712 84.3379C82.3352 84.6028 82.6933 84.7516 83.0667 84.7516C83.4401 84.7516 83.7982 84.6028 84.0623 84.3379C84.3263 84.073 84.4746 83.7137 84.4746 83.3391V9.88769C84.4746 9.51306 84.3263 9.15378 84.0623 8.88888C83.7982 8.62398 83.4401 8.47516 83.0667 8.47516ZM7.03955 48.0259C6.16626 48.0248 5.31468 47.7528 4.6016 47.247C3.88851 46.7412 3.34883 46.0265 3.05657 45.2008H7.03955V46.5258C7.03955 47.0258 7.05786 47.5273 7.09165 48.0259H7.03955ZM68.9876 2.82505H74.6193V8.47516H68.9876V2.82505ZM22.5266 39.5507V36.7257H28.1582C28.5316 36.7257 28.8897 36.5769 29.1538 36.312C29.4178 36.0471 29.5661 35.6878 29.5661 35.3132V25.4255H43.6452C44.0186 25.4255 44.3767 25.2767 44.6408 25.0118C44.9048 24.7469 45.0531 24.3876 45.0531 24.013C45.0531 23.6383 44.9048 23.279 44.6408 23.0141C44.3767 22.7492 44.0186 22.6004 43.6452 22.6004H28.1582C27.7848 22.6004 27.4267 22.7492 27.1627 23.0141C26.8986 23.279 26.7503 23.6383 26.7503 24.013V33.9006H14.0791V25.4255H16.8949V29.6631C16.8949 30.0377 17.0433 30.397 17.3073 30.6619C17.5713 30.9268 17.9294 31.0756 18.3028 31.0756C18.6762 31.0756 19.0343 30.9268 19.2984 30.6619C19.5624 30.397 19.7107 30.0377 19.7107 29.6631V24.013C19.7107 23.6383 19.5624 23.279 19.2984 23.0141C19.0343 22.7492 18.6762 22.6004 18.3028 22.6004H14.0791V15.5378C14.0791 14.4139 14.5241 13.3361 15.3162 12.5414C16.1083 11.7467 17.1826 11.3002 18.3028 11.3002H46.461V14.1253H33.7899C33.4165 14.1253 33.0583 14.2741 32.7943 14.539C32.5303 14.8039 32.3819 15.1632 32.3819 15.5378C32.3819 15.9124 32.5303 16.2717 32.7943 16.5366C33.0583 16.8015 33.4165 16.9503 33.7899 16.9503H47.869C48.2424 16.9503 48.6005 16.8015 48.8645 16.5366C49.1285 16.2717 49.2769 15.9124 49.2769 15.5378V11.3002H81.6588V42.3758H62.545C62.1716 42.3758 61.8135 42.5246 61.5495 42.7895C61.2854 43.0544 61.1371 43.4137 61.1371 43.7883C61.1371 44.1629 61.2854 44.5222 61.5495 44.7871C61.8135 45.052 62.1716 45.2008 62.545 45.2008H81.6588V48.0259H64.0599C63.6865 48.0259 63.3284 48.1747 63.0644 48.4396C62.8003 48.7045 62.652 49.0638 62.652 49.4384C62.652 49.8131 62.8003 50.1723 63.0644 50.4372C63.3284 50.7021 63.6865 50.851 64.0599 50.851H81.6588V59.3261H56.7388L61.3173 56.2638C61.5821 56.0869 61.7794 55.8254 61.877 55.5217C61.9747 55.218 61.967 54.8901 61.8551 54.5913L58.7789 46.3634C57.9188 44.0709 56.2893 42.1509 54.1708 40.9336C53.9539 40.8093 53.7216 40.7118 53.4964 40.6031V24.013C53.4964 23.6383 53.348 23.279 53.084 23.0141C52.82 22.7492 52.4619 22.6004 52.0885 22.6004H49.2769C48.9035 22.6004 48.5454 22.7492 48.2813 23.0141C48.0173 23.279 47.869 23.6383 47.869 24.013C47.869 24.3876 48.0173 24.7469 48.2813 25.0118C48.5454 25.2767 48.9035 25.4255 49.2769 25.4255H50.6848V39.7075C50.1226 39.6086 49.5533 39.5562 48.9826 39.5507H22.5266ZM46.2851 42.3758H48.9826C49.8562 42.3804 50.7225 42.5357 51.5436 42.8349C51.9704 42.9813 52.3832 43.1662 52.7769 43.3872C54.3255 44.277 55.5164 45.6806 56.1446 47.3564L58.8281 54.5348L52.2701 58.9207L45.0531 51.6759L46.2851 42.3758ZM44.4548 56.203L44.5885 55.2001L48.694 59.3261H44.3731C44.2896 58.2853 44.3147 57.2386 44.4477 56.203H44.4548Z" fill="black"/>
<path id="Vector_6" d="M18.3029 53.6758C18.5813 53.6757 18.8535 53.5929 19.0849 53.4376C19.3164 53.2824 19.4968 53.0618 19.6034 52.8038C19.7099 52.5457 19.7378 52.2617 19.6835 51.9878C19.6292 51.7138 19.4951 51.4622 19.2983 51.2646L17.8904 49.8521C17.6249 49.5948 17.2692 49.4524 16.9001 49.4556C16.5309 49.4588 16.1778 49.6074 15.9168 49.8693C15.6557 50.1312 15.5077 50.4855 15.5044 50.8558C15.5012 51.2262 15.6431 51.583 15.8996 51.8494L17.3075 53.2619C17.5715 53.5268 17.9295 53.6757 18.3029 53.6758Z" fill="black"/>
<path id="Vector_7" d="M21.1186 57.9135C21.1186 57.5389 20.9702 57.1796 20.7062 56.9147C20.4422 56.6498 20.084 56.501 19.7106 56.501C19.3372 56.501 18.9791 56.6498 18.7151 56.9147C18.4511 57.1796 18.3027 57.5389 18.3027 57.9135V59.326C18.3027 59.7007 18.4511 60.0599 18.7151 60.3248C18.9791 60.5897 19.3372 60.7386 19.7106 60.7386C20.084 60.7386 20.4422 60.5897 20.7062 60.3248C20.9702 60.0599 21.1186 59.7007 21.1186 59.326V57.9135Z" fill="black"/>
<path id="Vector_8" d="M18.7152 63.9776L17.3073 65.3901C17.1728 65.5204 17.0655 65.6763 16.9917 65.8486C16.918 66.0209 16.8791 66.2063 16.8775 66.3938C16.8759 66.5814 16.9115 66.7674 16.9823 66.941C17.0531 67.1146 17.1576 67.2723 17.2898 67.4049C17.422 67.5375 17.5792 67.6424 17.7522 67.7134C17.9253 67.7845 18.1106 67.8202 18.2976 67.8186C18.4845 67.817 18.6693 67.778 18.841 67.704C19.0128 67.6299 19.1682 67.5223 19.298 67.3874L20.706 65.9749C20.9624 65.7085 21.1043 65.3517 21.1011 64.9813C21.0979 64.6109 20.9498 64.2567 20.6888 63.9948C20.4278 63.7329 20.0746 63.5843 19.7055 63.5811C19.3363 63.5779 18.9807 63.7203 18.7152 63.9776Z" fill="black"/>
<path id="Vector_9" d="M20.706 71.04L19.2981 69.6275C19.0326 69.3702 18.6769 69.2278 18.3078 69.231C17.9386 69.2342 17.5855 69.3828 17.3245 69.6447C17.0634 69.9066 16.9154 70.2608 16.9122 70.6312C16.909 71.0016 17.0509 71.3584 17.3073 71.6248L18.7152 73.0373C18.9808 73.2946 19.3364 73.437 19.7056 73.4338C20.0747 73.4306 20.4278 73.282 20.6889 73.0201C20.9499 72.7582 21.098 72.4039 21.1012 72.0336C21.1044 71.6632 20.9625 71.3064 20.706 71.04Z" fill="black"/>
<path id="Vector_10" d="M22.5266 79.1016C22.1532 79.1016 21.7951 79.2504 21.531 79.5153C21.267 79.7802 21.1187 80.1395 21.1187 80.5141V83.3391C21.1187 83.7138 21.267 84.0731 21.531 84.338C21.7951 84.6028 22.1532 84.7517 22.5266 84.7517C22.9 84.7517 23.2581 84.6028 23.5221 84.338C23.7861 84.0731 23.9345 83.7138 23.9345 83.3391V80.5141C23.9345 80.1395 23.7861 79.7802 23.5221 79.5153C23.2581 79.2504 22.9 79.1016 22.5266 79.1016Z" fill="black"/>
<path id="Vector_11" d="M22.5266 77.6888C23.3041 77.6888 23.9345 77.0564 23.9345 76.2763C23.9345 75.4962 23.3041 74.8638 22.5266 74.8638C21.749 74.8638 21.1187 75.4962 21.1187 76.2763C21.1187 77.0564 21.749 77.6888 22.5266 77.6888Z" fill="black"/>
</g>
</g>
</svg>
