<svg width="116" height="116" viewBox="0 0 116 116" fill="none" xmlns="http://www.w3.org/2000/svg">
<path d="M86.5938 88.8C86.0882 88.8 85.6033 89.0015 85.2458 89.3602C84.8883 89.7188 84.6875 90.2053 84.6875 90.7125V113.662C84.6875 114.17 84.8883 114.656 85.2458 115.015C85.6033 115.374 86.0882 115.575 86.5938 115.575C87.0993 115.575 87.5842 115.374 87.9417 115.015C88.2992 114.656 88.5 114.17 88.5 113.662V90.7125C88.5 90.2053 88.2992 89.7188 87.9417 89.3602C87.5842 89.0015 87.0993 88.8 86.5938 88.8Z" fill="#FF4545"/>
<path d="M92.3125 35.25C90.4274 35.25 88.5846 35.8108 87.0172 36.8616C85.4498 37.9123 84.2282 39.4058 83.5068 41.1531C82.7854 42.9004 82.5966 44.8231 82.9644 46.6781C83.3322 48.533 84.2399 50.2369 85.5729 51.5742C86.9059 52.9115 88.6042 53.8223 90.453 54.1913C92.3019 54.5602 94.2183 54.3709 95.96 53.6471C97.7016 52.9233 99.1901 51.6977 100.237 50.1251C101.285 48.5526 101.844 46.7038 101.844 44.8125C101.841 42.2773 100.836 39.8468 99.0488 38.0541C97.262 36.2615 94.8394 35.253 92.3125 35.25ZM92.3125 50.55C90.9651 50.5526 89.6603 50.0766 88.6292 49.2065C87.598 48.3363 86.9071 47.1281 86.6788 45.7959C86.4505 44.4636 86.6995 43.0933 87.3817 41.9276C88.064 40.7618 89.1354 39.876 90.4063 39.4269V42.9C90.4063 43.4072 90.6071 43.8937 90.9646 44.2523C91.3221 44.611 91.8069 44.8125 92.3125 44.8125C92.8181 44.8125 93.3029 44.611 93.6604 44.2523C94.0179 43.8937 94.2188 43.4072 94.2188 42.9V39.4269C95.4896 39.876 96.5611 40.7618 97.2433 41.9276C97.9255 43.0933 98.1745 44.4636 97.9462 45.7959C97.7179 47.1281 97.027 48.3363 95.9958 49.2065C94.9647 50.0766 93.6599 50.5526 92.3125 50.55Z" fill="#FF4545"/>
<path d="M80.875 31.425H101.844V33.3375C101.844 33.8447 102.045 34.3312 102.402 34.6898C102.76 35.0485 103.244 35.25 103.75 35.25C104.256 35.25 104.74 35.0485 105.098 34.6898C105.455 34.3312 105.656 33.8447 105.656 33.3375V31.425H107.562C108.068 31.425 108.553 31.2235 108.91 30.8648C109.268 30.5062 109.469 30.0197 109.469 29.5125C109.469 29.0053 109.268 28.5188 108.91 28.1602C108.553 27.8015 108.068 27.6 107.562 27.6H105.656V25.6875C105.656 25.1803 105.455 24.6938 105.098 24.3352C104.74 23.9765 104.256 23.775 103.75 23.775C103.244 23.775 102.76 23.9765 102.402 24.3352C102.045 24.6938 101.844 25.1803 101.844 25.6875V27.6H80.875C80.3694 27.6 79.8846 27.8015 79.5271 28.1602C79.1696 28.5188 78.9688 29.0053 78.9688 29.5125C78.9688 30.0197 79.1696 30.5062 79.5271 30.8648C79.8846 31.2235 80.3694 31.425 80.875 31.425Z" fill="black"/>
<path d="M80.875 23.775H92.3125C92.8181 23.775 93.3029 23.5735 93.6604 23.2148C94.0179 22.8562 94.2188 22.3697 94.2188 21.8625C94.2188 21.3553 94.0179 20.8688 93.6604 20.5102C93.3029 20.1515 92.8181 19.95 92.3125 19.95H80.875C80.3694 19.95 79.8846 20.1515 79.5271 20.5102C79.1696 20.8688 78.9688 21.3553 78.9688 21.8625C78.9688 22.3697 79.1696 22.8562 79.5271 23.2148C79.8846 23.5735 80.3694 23.775 80.875 23.775Z" fill="black"/>
<path d="M113.281 12.3H105.656V2.7375C105.656 2.23027 105.455 1.74382 105.098 1.38516C104.74 1.02649 104.256 0.824997 103.75 0.824997H92.3125C91.8069 0.824997 91.3221 1.02649 90.9646 1.38516C90.6071 1.74382 90.4062 2.23027 90.4062 2.7375V12.3H25.5938C23.0668 12.303 20.6443 13.3115 18.8575 15.1041C17.0707 16.8968 16.0655 19.3273 16.0625 21.8625V48.6375C16.0625 49.1447 16.2633 49.6312 16.6208 49.9898C16.9783 50.3485 17.4632 50.55 17.9688 50.55H27.5V54.375H16.0625C14.8839 54.3799 13.7357 54.75 12.7748 55.4347C11.8139 56.1194 11.0873 57.0852 10.6945 58.2H2.71875C2.21318 58.2 1.72832 58.4015 1.37083 58.7602C1.01334 59.1188 0.8125 59.6053 0.8125 60.1125C0.815527 62.6477 1.82068 65.0782 3.60748 66.8708C5.39428 68.6635 7.81683 69.672 10.3438 69.675H10.9271C11.0872 70.4821 11.2702 71.2872 11.4989 72.0809L12.168 74.4295C13.4267 78.8619 13.5036 83.5481 12.3911 88.0197C11.0017 93.5764 11.2246 99.4158 13.0335 104.85L16.1654 114.271C16.3252 114.753 16.6692 115.151 17.1218 115.378C17.3459 115.491 17.5899 115.558 17.8399 115.576C18.0899 115.594 18.3409 115.563 18.5787 115.483C18.8166 115.404 19.0365 115.278 19.2259 115.114C19.4154 114.949 19.5706 114.749 19.6828 114.524C19.7951 114.299 19.8621 114.054 19.88 113.803C19.8979 113.552 19.8664 113.301 19.7873 113.062L16.6573 103.639C15.0799 98.8972 14.8854 93.802 16.0968 88.953C17.3728 83.831 17.2854 78.4626 15.8433 73.3852L15.1742 71.0348C14.5026 68.6886 14.16 66.26 14.1562 63.8189V60.1125C14.1562 59.6053 14.3571 59.1188 14.7146 58.7602C15.0721 58.4015 15.5569 58.2 16.0625 58.2H19.875V62.025C19.875 62.5322 20.0758 63.0187 20.4333 63.3773C20.7908 63.736 21.2757 63.9375 21.7812 63.9375C22.2868 63.9375 22.7717 63.736 23.1292 63.3773C23.4867 63.0187 23.6875 62.5322 23.6875 62.025V58.2H48.7204L39.2577 72.4386C39.0818 72.7034 38.9744 73.008 38.9455 73.3249C38.9165 73.6419 38.9668 73.961 39.0919 74.2535L56.2482 114.416C56.3951 114.76 56.6394 115.053 56.9508 115.259C57.2622 115.465 57.627 115.575 58 115.575C58.2583 115.576 58.5141 115.523 58.7511 115.42C59.2156 115.22 59.5821 114.843 59.7697 114.372C59.9574 113.902 59.951 113.375 59.7518 112.909L43.0035 73.6912L53.2973 58.2H59.6298L57.2108 76.4166C56.4388 82.2312 57.8035 88.1289 61.05 93.0075C62.8435 95.7137 63.967 98.8105 64.3268 102.04L65.6383 113.873C65.694 114.377 65.9469 114.838 66.3416 115.155C66.7363 115.473 67.2403 115.619 67.7428 115.564C68.2454 115.508 68.7052 115.254 69.0213 114.858C69.3373 114.462 69.4836 113.956 69.428 113.452L68.1165 101.614C67.6872 97.7766 66.3514 94.0977 64.2201 90.8827C63.022 89.0694 62.1223 87.0748 61.5552 84.975H111.375V113.662C111.375 114.17 111.576 114.656 111.933 115.015C112.291 115.374 112.776 115.575 113.281 115.575C113.787 115.575 114.272 115.374 114.629 115.015C114.987 114.656 115.188 114.17 115.188 113.662V14.2125C115.188 13.7053 114.987 13.2188 114.629 12.8602C114.272 12.5015 113.787 12.3 113.281 12.3ZM10.3438 65.85C9.16135 65.8485 8.00835 65.4802 7.04286 64.7954C6.07737 64.1106 5.34667 63.1429 4.95097 62.025H10.3438V63.8189C10.3438 64.4959 10.3685 65.1749 10.4143 65.85H10.3438ZM94.2188 4.65H101.844V12.3H94.2188V4.65ZM31.3125 54.375V50.55H38.9375C39.4431 50.55 39.9279 50.3485 40.2854 49.9898C40.6429 49.6312 40.8438 49.1447 40.8438 48.6375V35.25H59.9062C60.4118 35.25 60.8967 35.0485 61.2542 34.6898C61.6117 34.3312 61.8125 33.8447 61.8125 33.3375C61.8125 32.8303 61.6117 32.3438 61.2542 31.9852C60.8967 31.6265 60.4118 31.425 59.9062 31.425H38.9375C38.4319 31.425 37.9471 31.6265 37.5896 31.9852C37.2321 32.3438 37.0312 32.8303 37.0312 33.3375V46.725H19.875V35.25H23.6875V40.9875C23.6875 41.4947 23.8883 41.9812 24.2458 42.3398C24.6033 42.6985 25.0882 42.9 25.5938 42.9C26.0993 42.9 26.5842 42.6985 26.9417 42.3398C27.2992 41.9812 27.5 41.4947 27.5 40.9875V33.3375C27.5 32.8303 27.2992 32.3438 26.9417 31.9852C26.5842 31.6265 26.0993 31.425 25.5938 31.425H19.875V21.8625C19.875 20.3408 20.4775 18.8815 21.55 17.8055C22.6225 16.7295 24.077 16.125 25.5938 16.125H63.7188V19.95H46.5625C46.0569 19.95 45.5721 20.1515 45.2146 20.5102C44.8571 20.8688 44.6562 21.3553 44.6562 21.8625C44.6562 22.3697 44.8571 22.8562 45.2146 23.2148C45.5721 23.5735 46.0569 23.775 46.5625 23.775H65.625C66.1306 23.775 66.6154 23.5735 66.9729 23.2148C67.3304 22.8562 67.5312 22.3697 67.5312 21.8625V16.125H111.375V58.2H85.4958C84.9902 58.2 84.5053 58.4015 84.1478 58.7602C83.7903 59.1188 83.5895 59.6053 83.5895 60.1125C83.5895 60.6197 83.7903 61.1062 84.1478 61.4648C84.5053 61.8235 84.9902 62.025 85.4958 62.025H111.375V65.85H87.5469C87.0413 65.85 86.5564 66.0515 86.199 66.4102C85.8415 66.7688 85.6406 67.2553 85.6406 67.7625C85.6406 68.2697 85.8415 68.7562 86.199 69.1148C86.5564 69.4735 87.0413 69.675 87.5469 69.675H111.375V81.15H77.6344L83.8335 77.0037C84.192 76.7643 84.4591 76.4101 84.5913 75.9989C84.7235 75.5878 84.7131 75.1438 84.5617 74.7393L80.3965 63.599C79.2321 60.4952 77.0258 57.8955 74.1574 56.2473C73.8638 56.079 73.5493 55.9471 73.2443 55.7998V33.3375C73.2443 32.8303 73.0434 32.3438 72.686 31.9852C72.3285 31.6265 71.8436 31.425 71.338 31.425H67.5312C67.0257 31.425 66.5408 31.6265 66.1833 31.9852C65.8258 32.3438 65.625 32.8303 65.625 33.3375C65.625 33.8447 65.8258 34.3312 66.1833 34.6898C66.5408 35.0485 67.0257 35.25 67.5312 35.25H69.4375V54.5873C68.6764 54.4534 67.9056 54.3824 67.1328 54.375H31.3125ZM63.4805 58.2H67.1328C68.3156 58.2063 69.4885 58.4165 70.6003 58.8216C71.1782 59.0199 71.7371 59.2701 72.2702 59.5693C74.3669 60.7741 75.9793 62.6746 76.8299 64.9435L80.4632 74.6628L71.5839 80.6011L61.8125 70.7919L63.4805 58.2ZM61.0023 76.9215L61.1834 75.5636L66.7421 81.15H60.8918C60.7788 79.7408 60.8126 78.3236 60.9928 76.9215H61.0023Z" fill="black"/>
<path d="M25.5938 73.5C25.9707 73.4999 26.3392 73.3877 26.6526 73.1776C26.966 72.9674 27.2103 72.6687 27.3545 72.3193C27.4988 71.9699 27.5365 71.5854 27.463 71.2145C27.3895 70.8436 27.208 70.5028 26.9415 70.2354L25.0352 68.3229C24.6757 67.9745 24.1942 67.7817 23.6944 67.7861C23.1946 67.7904 22.7164 67.9916 22.363 68.3462C22.0096 68.7007 21.8091 69.1804 21.8048 69.6819C21.8004 70.1833 21.9926 70.6664 22.3398 71.0271L24.246 72.9396C24.6035 73.2983 25.0882 73.4999 25.5938 73.5Z" fill="black"/>
<path d="M29.4062 79.2375C29.4062 78.7303 29.2054 78.2438 28.8479 77.8852C28.4904 77.5265 28.0056 77.325 27.5 77.325C26.9944 77.325 26.5096 77.5265 26.1521 77.8852C25.7946 78.2438 25.5938 78.7303 25.5938 79.2375V81.15C25.5938 81.6572 25.7946 82.1437 26.1521 82.5023C26.5096 82.861 26.9944 83.0625 27.5 83.0625C28.0056 83.0625 28.4904 82.861 28.8479 82.5023C29.2054 82.1437 29.4062 81.6572 29.4062 81.15V79.2375Z" fill="black"/>
<path d="M26.1523 87.4479L24.246 89.3604C24.064 89.5368 23.9187 89.7478 23.8188 89.9811C23.7189 90.2145 23.6663 90.4654 23.6641 90.7194C23.6619 90.9733 23.7102 91.2252 23.806 91.4602C23.9019 91.6952 24.0434 91.9088 24.2224 92.0883C24.4014 92.2679 24.6142 92.4099 24.8485 92.5061C25.0828 92.6022 25.3338 92.6506 25.5869 92.6484C25.84 92.6462 26.0901 92.5935 26.3227 92.4932C26.5553 92.393 26.7656 92.2473 26.9415 92.0646L28.8477 90.1521C29.1949 89.7914 29.3871 89.3083 29.3827 88.8069C29.3784 88.3054 29.1779 87.8257 28.8245 87.4712C28.4711 87.1166 27.9929 86.9154 27.4931 86.9111C26.9933 86.9067 26.5118 87.0995 26.1523 87.4479Z" fill="black"/>
<path d="M28.8477 97.0104L26.9415 95.0979C26.582 94.7495 26.1004 94.5567 25.6006 94.5611C25.1008 94.5654 24.6227 94.7666 24.2693 95.1212C23.9158 95.4757 23.7154 95.9554 23.711 96.4569C23.7067 96.9583 23.8988 97.4414 24.246 97.8021L26.1523 99.7146C26.5118 100.063 26.9933 100.256 27.4932 100.251C27.993 100.247 28.4711 100.046 28.8245 99.6913C29.1779 99.3367 29.3784 98.8571 29.3828 98.3556C29.3871 97.8542 29.195 97.3711 28.8477 97.0104Z" fill="black"/>
<path d="M31.3125 107.925C30.8069 107.925 30.3221 108.126 29.9646 108.485C29.6071 108.844 29.4062 109.33 29.4062 109.837V113.662C29.4062 114.17 29.6071 114.656 29.9646 115.015C30.3221 115.374 30.8069 115.575 31.3125 115.575C31.8181 115.575 32.3029 115.374 32.6604 115.015C33.0179 114.656 33.2188 114.17 33.2188 113.662V109.837C33.2188 109.33 33.0179 108.844 32.6604 108.485C32.3029 108.126 31.8181 107.925 31.3125 107.925Z" fill="black"/>
<path d="M31.3125 106.013C32.3653 106.013 33.2188 105.156 33.2188 104.1C33.2188 103.044 32.3653 102.188 31.3125 102.188C30.2597 102.188 29.4062 103.044 29.4062 104.1C29.4062 105.156 30.2597 106.013 31.3125 106.013Z" fill="black"/>
</svg>
