<svg width="32" height="32" viewBox="0 0 32 32" fill="none" xmlns="http://www.w3.org/2000/svg">
<g id="Arrow - left 3">
<g id="Iconly/Bold/Arrow---Right-2">
<g id="Arrow---Right-2">
<path id="Vector" d="M9.82546 17.508C9.9008 17.5853 10.1853 17.916 10.4502 18.188C12.0037 19.8987 16.0563 22.6987 18.1775 23.5533C18.4996 23.6907 19.314 23.9813 19.7491 24C20.1661 24 20.5636 23.904 20.9428 23.7093C21.4157 23.4373 21.7949 23.0093 22.0028 22.504C22.1365 22.1533 22.3444 21.104 22.3444 21.0853C22.5522 19.9373 22.6665 18.072 22.6665 16.0107C22.6665 14.0467 22.5522 12.2573 22.382 11.092C22.3626 11.0733 22.1547 9.76933 21.9274 9.32267C21.5105 8.50667 20.6961 8 19.8245 8H19.7491C19.1815 8.02 17.9878 8.52667 17.9878 8.54533C15.981 9.40133 12.0219 12.064 10.4308 13.8333C10.4308 13.8333 9.98263 14.288 9.78779 14.572C9.48384 14.98 9.33317 15.4853 9.33317 15.9907C9.33317 16.5547 9.50333 17.08 9.82546 17.508Z" fill="#FE7D02"/>
</g>
</g>
</g>
</svg>
