<svg width="32" height="32" viewBox="0 0 32 32" fill="none" xmlns="http://www.w3.org/2000/svg">
<g id="Arrow - Right 2">
<g id="Iconly/Bold/Arrow---Right-2">
<g id="Arrow---Right-2">
<path id="Vector" d="M22.1745 17.508C22.0992 17.5853 21.8147 17.916 21.5498 18.188C19.9963 19.8987 15.9437 22.6987 13.8225 23.5533C13.5004 23.6907 12.686 23.9813 12.2509 24C11.8339 24 11.4364 23.904 11.0572 23.7093C10.5843 23.4373 10.2051 23.0093 9.99724 22.504C9.86345 22.1533 9.65563 21.104 9.65563 21.0853C9.4478 19.9373 9.3335 18.072 9.3335 16.0107C9.3335 14.0467 9.4478 12.2573 9.61796 11.092C9.63744 11.0733 9.84527 9.76933 10.0726 9.32267C10.4895 8.50667 11.3039 8 12.1755 8H12.2509C12.8185 8.02 14.0122 8.52667 14.0122 8.54533C16.019 9.40133 19.9781 12.064 21.5692 13.8333C21.5692 13.8333 22.0174 14.288 22.2122 14.572C22.5162 14.98 22.6668 15.4853 22.6668 15.9907C22.6668 16.5547 22.4967 17.08 22.1745 17.508Z" fill="#FFF"/>
</g>
</g>
</g>
</svg>
