<svg width="127" height="127" viewBox="0 0 127 127" fill="none" xmlns="http://www.w3.org/2000/svg">
<path d="M10.5833 15.875L11.9852 16.3423C18.9704 18.6707 22.463 19.8349 24.4606 22.6065C26.4583 25.3781 26.4583 29.0597 26.4583 36.4228V50.2708C26.4583 65.2378 26.4583 72.7213 31.108 77.371C35.7577 82.0208 43.2412 82.0208 58.2083 82.0208H68.7917M100.542 82.0208H89.9583" stroke="#333333" stroke-width="7" stroke-linecap="round"/>
<path d="M39.6875 95.25C44.0713 95.25 47.625 98.8039 47.625 103.187C47.625 107.571 44.0713 111.125 39.6875 111.125C35.3037 111.125 31.75 107.571 31.75 103.187C31.75 98.8039 35.3037 95.25 39.6875 95.25Z" stroke="#333333" stroke-width="7"/>
<path d="M87.3125 95.2505C91.6961 95.2505 95.25 98.8038 95.25 103.188C95.25 107.572 91.6961 111.125 87.3125 111.125C82.9289 111.125 79.375 107.572 79.375 103.188C79.375 98.8038 82.9289 95.2505 87.3125 95.2505Z" stroke="#25803C" stroke-width="7"/>
<path d="M26.4583 31.75H42.3333M29.1042 68.7917H84.782C89.8588 68.7917 92.3973 68.7917 94.3853 67.4809C96.3734 66.1696 97.3735 63.8366 99.3733 59.1704L101.641 53.8787C105.925 43.8835 108.067 38.886 105.714 35.318C103.361 31.75 97.9244 31.75 87.05 31.75H63.5" stroke="#333333" stroke-width="7" stroke-linecap="round"/>
</svg>
