<svg width="194" height="194" viewBox="0 0 194 194" fill="none" xmlns="http://www.w3.org/2000/svg">
<g id="car-wash-svgrepo-com 1" clip-path="url(#clip0_9_155)">
<g id="Group">
<g id="Group_2">
<g id="Group_3">
<path id="Vector" d="M53.1933 121.031V128.29H100.129V97H70.356L53.1933 121.031ZM93.8709 103.258V122.032H60.1684L73.5798 103.258H93.8709Z" fill="black"/>
<path id="Vector_2" d="M103.258 97V128.29H150.194V121.031L133.031 97H103.258ZM109.516 122.032V103.258H129.808L143.22 122.032H109.516Z" fill="black"/>
<path id="Vector_3" d="M182.245 122.126L169.738 118.997C166.587 118.199 164.766 116.969 162.128 113.956L146.402 91.9436C142.369 86.7841 137.747 84.4843 131.42 84.4843H71.9686C65.6387 84.4843 61.0167 86.7841 56.9053 92.0534L41.4444 113.722C38.6347 116.957 36.4912 118.428 33.9036 118.947L15.0074 122.098C6.03281 123.966 0 131.485 0 140.807V162.71C0 169.494 5.73251 175.226 12.5164 175.226H22.154C23.6811 185.821 32.7957 194 43.8067 194H194V187.742H165.491C168.852 184.453 171.142 180.094 171.846 175.225H184.613C192.37 175.225 194 170.119 194 165.838V137.677C194 129.921 187.67 123.043 182.245 122.126ZM43.8067 187.742C35.1797 187.742 28.1612 180.723 28.1612 172.097C28.1612 163.47 35.1797 156.451 43.8067 156.451C52.4337 156.451 59.4522 163.47 59.4522 172.097C59.4522 180.724 52.4337 187.742 43.8067 187.742ZM59.1046 187.742C62.465 184.453 64.7556 180.094 65.4593 175.225H128.541C129.242 180.094 131.532 184.453 134.895 187.742H59.1046ZM150.193 187.742C141.566 187.742 134.548 180.723 134.548 172.096C134.548 163.469 141.566 156.451 150.193 156.451C158.82 156.451 165.839 163.469 165.839 172.096C165.839 180.723 158.82 187.742 150.193 187.742ZM187.742 165.839C187.742 168.526 187.304 168.968 184.613 168.968H171.846C170.319 158.373 161.204 150.194 150.193 150.194C139.182 150.194 130.067 158.373 128.541 168.968H65.4593C63.9323 158.373 54.8177 150.194 43.8067 150.194C32.7957 150.194 23.6805 158.373 22.154 168.968H12.5164C9.18425 168.968 6.25819 166.042 6.25819 162.71V147.064H12.5164V153.322H18.7746V147.064C18.7746 143.028 16.5529 140.806 12.5164 140.806H6.25819C6.25819 133.065 11.4368 129.232 16.1613 128.246L35.0358 125.099C39.119 124.279 42.4485 122.104 46.3536 117.592L61.9176 95.7955C64.7963 92.1125 67.522 90.7424 71.9679 90.7424H131.419C135.863 90.7424 138.588 92.1131 141.388 95.6897L157.218 117.827C160.287 121.357 163.194 123.798 168.207 125.065L180.955 128.244C183.627 128.704 187.742 132.956 187.742 137.678V165.839Z" fill="black"/>
<path id="Vector_4" d="M100.129 134.548H90.7418V140.807H100.129V134.548Z" fill="black"/>
<path id="Vector_5" d="M43.8067 162.71C38.6314 162.71 34.4194 166.922 34.4194 172.097C34.4194 177.272 38.6314 181.484 43.8067 181.484C48.982 181.484 53.194 177.272 53.194 172.097C53.1933 166.922 48.982 162.71 43.8067 162.71ZM43.8067 175.226C42.0825 175.226 40.6776 173.825 40.6776 172.097C40.6776 170.369 42.0825 168.968 43.8067 168.968C45.5309 168.968 46.9358 170.369 46.9358 172.097C46.9358 173.825 45.5303 175.226 43.8067 175.226Z" fill="black"/>
<path id="Vector_6" d="M150.193 162.71C145.018 162.71 140.806 166.922 140.806 172.097C140.806 177.272 145.018 181.484 150.193 181.484C155.369 181.484 159.581 177.272 159.581 172.097C159.581 166.922 155.369 162.71 150.193 162.71ZM150.193 175.226C148.469 175.226 147.064 173.825 147.064 172.097C147.064 170.369 148.469 168.968 150.193 168.968C151.918 168.968 153.322 170.369 153.322 172.097C153.322 173.825 151.918 175.226 150.193 175.226Z" fill="black"/>
<path id="Vector_7" d="M21.9037 187.742H15.6455V194H21.9037V187.742Z" fill="black"/>
<path id="Vector_8" d="M9.38728 187.742H3.12909V194H9.38728V187.742Z" fill="black"/>
<path id="Vector_9" d="M46.9358 31.2903H40.6776V78.2261H46.9358V31.2903Z" fill="black"/>
<path id="Vector_10" d="M25.0321 31.2903H18.7739V90.7418H25.0321V31.2903Z" fill="black"/>
<path id="Vector_11" d="M156.451 31.2903H150.193V90.7418H156.451V31.2903Z" fill="black"/>
<path id="Vector_12" d="M178.355 31.2903H172.097V90.7418H178.355V31.2903Z" fill="black"/>
<path id="Vector_13" d="M68.8388 31.2903H62.5806V78.2261H68.8388V31.2903Z" fill="black"/>
<path id="Vector_14" d="M90.7418 43.8066H84.4836V78.226H90.7418V43.8066Z" fill="black"/>
<path id="Vector_15" d="M112.645 31.2903H106.387V65.7097H112.645V31.2903Z" fill="black"/>
<path id="Vector_16" d="M134.548 31.2903H128.29V78.2261H134.548V31.2903Z" fill="black"/>
<path id="Vector_17" d="M179.92 9.38729H140.807V0H134.548V9.38729H59.4515V0H53.1933V9.38729H14.0809C6.31733 9.38729 0 15.7046 0 23.4676V28.1612H194V23.4676C194 15.7046 187.683 9.38729 179.92 9.38729ZM6.912 21.903C8.11975 18.7739 10.8796 15.6448 14.0809 15.6448H179.92C183.12 15.6448 185.88 18.7739 187.089 21.903H6.912Z" fill="black"/>
<path id="Vector_18" d="M46.9358 97H40.6776V103.258H46.9358V97Z" fill="black"/>
<path id="Vector_19" d="M178.355 97H172.097V103.258H178.355V97Z" fill="black"/>
<path id="Vector_20" d="M25.0321 97H18.7739V103.258H25.0321V97Z" fill="black"/>
<path id="Vector_21" d="M25.0321 109.516H18.7739V115.775H25.0321V109.516Z" fill="black"/>
<path id="Vector_22" d="M178.355 109.516H172.097V115.775H178.355V109.516Z" fill="black"/>
<path id="Vector_23" d="M112.645 71.9679H106.387V78.2261H112.645V71.9679Z" fill="black"/>
<path id="Vector_24" d="M46.9358 84.4836H40.6776V90.7418H46.9358V84.4836Z" fill="black"/>
<path id="Vector_25" d="M6.25819 112.646H0V118.904H6.25819V112.646Z" fill="black"/>
<path id="Vector_26" d="M194 112.646H187.742V118.904H194V112.646Z" fill="black"/>
<path id="Vector_27" d="M90.7418 31.2903H84.4836V37.5485H90.7418V31.2903Z" fill="black"/>
</g>
</g>
</g>
</g>
<defs>
<clipPath id="clip0_9_155">
<rect width="194" height="194" fill="white"/>
</clipPath>
</defs>
</svg>
