<svg width="103" height="103" viewBox="0 0 103 103" fill="none" xmlns="http://www.w3.org/2000/svg">
<g clip-path="url(#clip0_85_26)">
<path d="M95.2742 82.8759H70.7231L75.5329 69.9691C75.6289 69.9779 75.7257 69.9838 75.824 69.9838H83.2358C92.7762 69.9838 100.538 62.2219 100.538 52.6813C100.538 43.1409 92.7765 35.3792 83.2358 35.3792H79.8668H19.2245C17.4836 35.3792 16.0721 36.7907 16.0721 38.5316V49.0877C16.0721 49.4613 16.1385 49.8321 16.2685 50.1827L28.3771 82.8759H13.8244C13.8164 82.8759 13.8083 82.8759 13.8003 82.8759H5.61417C3.87322 82.8759 2.46179 84.2873 2.46179 86.0283C2.46179 87.7692 3.87322 89.1806 5.61417 89.1806H11.8906L14.2634 93.6525C17.3228 99.4187 23.2781 103 29.8054 103H71.083C77.6102 103 83.5656 99.4185 86.625 93.6525L88.9978 89.1806H95.274C97.015 89.1806 98.4264 87.7692 98.4264 86.0283C98.4268 84.2871 97.0152 82.8759 95.2742 82.8759ZM82.8208 50.4137C82.9522 50.0614 83.0192 49.6887 83.0192 49.3129V41.6844H83.2358C89.3 41.6844 94.2333 46.6177 94.2333 52.6817C94.2333 58.7456 89.2998 63.6792 83.2358 63.6792H77.877L82.8208 50.4137ZM22.3769 48.5233V41.6842H76.7146V48.7445L64.2015 82.3217H34.8946L22.3769 48.5233ZM81.0557 90.6979C79.0927 94.3975 75.2714 96.6959 71.083 96.6959H29.8054C25.6172 96.6959 21.7959 94.3973 19.8326 90.6979L19.0278 89.1809H81.8606L81.0557 90.6979Z" fill="#333333"/>
<path d="M42.8817 18.6936C49.0066 12.5687 45.7364 4.5954 43.1513 1.23481C42.0897 -0.145235 40.1053 -0.41018 38.7253 0.651408C37.3454 1.7132 37.0821 3.68549 38.1433 5.06534C38.1548 5.08063 39.3029 6.62342 39.8245 8.63313C40.4149 10.9088 39.9697 12.689 38.4233 14.2356C35.238 17.4208 34.1848 21.5593 35.4584 25.8885C36.3404 28.8876 38.0399 30.9828 38.2306 31.2117C38.8542 31.9601 39.7507 32.346 40.6541 32.346C41.3655 32.346 42.0812 32.1064 42.6705 31.6153C44.0079 30.5006 44.1887 28.513 43.0742 27.1754C42.9135 26.9821 39.1739 22.4012 42.8817 18.6936Z" fill="#333333"/>
<path d="M60.6896 18.6936C66.8145 12.5687 63.5442 4.5954 60.9592 1.23481C59.8976 -0.145235 57.9132 -0.41018 56.5332 0.651408C55.1533 1.7132 54.89 3.68549 55.9512 5.06534C55.9626 5.08063 57.1109 6.62342 57.6324 8.63313C58.2228 10.9088 57.7776 12.689 56.2312 14.2356C53.046 17.4208 51.9929 21.5593 53.2663 25.8885C54.1482 28.8876 55.8478 30.9828 56.0385 31.2117C56.6621 31.9601 57.5585 32.346 58.462 32.346C59.1733 32.346 59.8891 32.1064 60.4783 31.6153C61.8157 30.5006 61.9966 28.513 60.8821 27.1754C60.7214 26.9821 56.9818 22.4012 60.6896 18.6936Z" fill="#25803C"/>
</g>
<defs>
<clipPath id="clip0_85_26">
<rect width="103" height="103" fill="white"/>
</clipPath>
</defs>
</svg>
