<svg width="114" height="114" viewBox="0 0 114 114" fill="none" xmlns="http://www.w3.org/2000/svg">
<path d="M91.7366 4.79376H20.4356L0 34.4322V35.6579L57 109.206L114 35.6579V34.3923L91.7366 4.79376ZM88.8441 8.29169L74.7922 31.7107L60.1553 8.29169H88.8441ZM71.9903 33.827H42.0094L56.9998 9.84272L71.9903 33.827ZM53.8445 8.29169L39.177 31.7594L24.5093 8.29169H53.8445ZM5.71737 37.325H10.5944V33.827H4.66598L21.2822 9.72805L36.3444 33.8272H14.3255V37.3252H37.9524L53.8906 99.4841L5.71737 37.325ZM56.9998 97.527L41.5635 37.325H72.4363L56.9998 97.527ZM103.405 33.8272V37.3252H108.282L60.1094 99.4839L76.0476 37.325H99.6745V33.827H77.6015L91.6217 10.4606L109.198 33.8272H103.405Z" fill="#333333"/>
<path d="M43.0538 73.5998L20.2499 44.2768C19.6569 43.5143 18.5581 43.3768 17.7956 43.9698C17.033 44.5628 16.8956 45.6616 17.4886 46.4242L40.2925 75.7472C40.8855 76.5097 41.9843 76.6471 42.7468 76.0541C43.5093 75.4611 43.6468 74.3623 43.0538 73.5998Z" fill="#25803C"/>
</svg>
