<svg width="16" height="16" viewBox="0 0 16 16" fill="none" xmlns="http://www.w3.org/2000/svg">
<path d="M1 8.721V10.1C1 13.6 2.4 15 5.9 15H10.1C13.6 15 15 13.6 15 10.1V5.9C15 2.4 13.6 1 10.1 1H5.9C2.4 1 1 2.4 1 5.9" stroke="#292D32" stroke-width="2" stroke-linecap="round" stroke-linejoin="round"/>
<path d="M8.00005 10.45C9.35315 10.45 10.45 9.35309 10.45 7.99999C10.45 6.64689 9.35315 5.54999 8.00005 5.54999C6.64695 5.54999 5.55005 6.64689 5.55005 7.99999C5.55005 9.35309 6.64695 10.45 8.00005 10.45Z" stroke="#292D32" stroke-width="2" stroke-linecap="round" stroke-linejoin="round"/>
<path d="M11.9452 4.5H11.9536" stroke="#292D32" stroke-width="2" stroke-linecap="round" stroke-linejoin="round"/>
</svg>
