<svg width="208" height="208" viewBox="0 0 208 208" fill="none" xmlns="http://www.w3.org/2000/svg">
<g id="parking-svgrepo-com 1">
<g id="Group">
<g id="Group_2">
<path id="Vector" d="M208 190.335H0V196.697H208V190.335Z" fill="black"/>
</g>
</g>
<g id="Group_3">
<g id="Group_4">
<path id="Vector_2" d="M94.2493 125.39C87.1187 125.39 81.3182 131.191 81.3182 138.321C81.3182 145.451 87.1191 151.252 94.2493 151.252H207.998V144.89H186.429L199.567 131.753H207.998V125.391H94.2493V125.39ZM104.343 144.89H94.2493C90.6275 144.89 87.6806 141.943 87.6806 138.321C87.6806 134.7 90.6271 131.753 94.2493 131.753H104.343V144.89ZM110.706 144.89V131.753H132.069L118.931 144.89H110.706ZM127.929 144.89L141.066 131.753H161.319L148.181 144.89H127.929ZM177.431 144.89H157.179L170.316 131.753H190.568L177.431 144.89Z" fill="black"/>
</g>
</g>
<g id="Group_5">
<g id="Group_6">
<path id="Vector_3" d="M100.524 135.156H94.162V141.518H100.524V135.156Z" fill="black"/>
</g>
</g>
<g id="Group_7">
<g id="Group_8">
<path id="Vector_4" d="M87.8012 154.245V187.329H94.1636V160.607H110.706V154.245H87.8012Z" fill="black"/>
</g>
</g>
<g id="Group_9">
<g id="Group_10">
<path id="Vector_5" d="M68.2897 24.8761V187.329H74.6524V31.2384H207.839V24.8761H68.2897Z" fill="black"/>
</g>
</g>
<g id="Group_11">
<g id="Group_12">
<path id="Vector_6" d="M0.0686569 24.6409V125.253H61.6811V24.6409H0.0686569ZM55.3188 118.89H6.431V31.0032H55.3184L55.3188 118.89Z" fill="black"/>
</g>
</g>
<g id="Group_13">
<g id="Group_14">
<path id="Vector_7" d="M13.1488 37.6008V99.5282H19.5112V69.8371H48.7781V37.6008H13.1488ZM42.4162 63.4747H19.5116V43.9632H42.4162V63.4747Z" fill="black"/>
</g>
</g>
<g id="Group_15">
<g id="Group_16">
<path id="Vector_8" d="M48.7769 93.1678H29.2653V99.5302H48.7769V93.1678Z" fill="black"/>
</g>
</g>
<g id="Group_17">
<g id="Group_18">
<path id="Vector_9" d="M48.7769 82.9879H29.2653V89.3503H48.7769V82.9879Z" fill="black"/>
</g>
</g>
<g id="Group_19">
<g id="Group_20">
<path id="Vector_10" d="M19.5095 105.893H12.7231V112.255H19.5095V105.893Z" fill="black"/>
</g>
</g>
<g id="Group_21">
<g id="Group_22">
<path id="Vector_11" d="M29.2653 105.893H22.4788V112.255H29.2653V105.893Z" fill="black"/>
</g>
</g>
<g id="Group_23">
<g id="Group_24">
<path id="Vector_12" d="M39.0211 105.893H32.2346V112.255H39.0211V105.893Z" fill="black"/>
</g>
</g>
<g id="Group_25">
<g id="Group_26">
<path id="Vector_13" d="M48.7769 105.893H42.4145V112.255H48.7769V105.893Z" fill="black"/>
</g>
</g>
<g id="Group_27">
<g id="Group_28">
<path id="Vector_14" d="M55.565 128.371V141.52H0V147.883H55.565V154.245H0V160.607H55.565V187.329H61.9273V128.371H55.565Z" fill="black"/>
</g>
</g>
<g id="Group_29">
<g id="Group_30">
<path id="Vector_15" d="M55.565 11.3029V21.0586H61.9273V17.6652H207.839V11.3029H55.565Z" fill="black"/>
</g>
</g>
</g>
</svg>
