<svg width="27" height="27" viewBox="0 0 27 27" fill="none" xmlns="http://www.w3.org/2000/svg">
<path d="M12.8734 25.7443C5.77731 25.7443 0 19.9675 0 12.8721C0 5.77677 5.77731 0 12.8734 0C19.9694 0 25.7467 5.77677 25.7467 12.8721C25.7467 19.9675 19.9694 25.7443 12.8734 25.7443ZM12.8734 1.88373C6.80718 1.88373 1.88391 6.8191 1.88391 12.8721C1.88391 18.9252 6.80718 23.8606 12.8734 23.8606C18.9395 23.8606 23.8628 18.9252 23.8628 12.8721C23.8628 6.8191 18.9395 1.88373 12.8734 1.88373Z" fill="white"/>
<path d="M26.061 27C25.8224 27 25.5838 26.9121 25.3954 26.7237L22.8835 24.2121C22.5193 23.8479 22.5193 23.2451 22.8835 22.8809C23.2477 22.5167 23.8506 22.5167 24.2148 22.8809L26.7267 25.3926C27.0909 25.7567 27.0909 26.3595 26.7267 26.7237C26.5383 26.9121 26.2997 27 26.061 27Z" fill="white"/>
</svg>
