<svg width="123" height="123" viewBox="0 0 123 123" fill="none" xmlns="http://www.w3.org/2000/svg">
<g clip-path="url(#clip0_3_69)">
<path d="M94.0438 57.9243L61.0938 24.9743C60.7029 24.5834 60.1725 24.3638 59.6194 24.3638C59.0664 24.3638 58.536 24.5834 58.1451 24.9743L28.5853 54.5341C27.7709 55.3488 27.7709 56.6686 28.5853 57.483C29.3996 58.2969 30.7197 58.2969 31.5339 57.483L59.6194 29.3972L89.6209 59.3987L82.3966 66.623C81.5822 67.4376 81.5822 68.7575 82.3966 69.5719C82.8035 69.9788 83.3373 70.1823 83.8709 70.1823C84.4044 70.1823 84.9382 69.9788 85.3452 69.5719L94.0441 60.873C94.8582 60.0586 94.8582 58.7385 94.0438 57.9243Z" fill="black"/>
<path d="M79.4554 72.5128C78.641 71.6992 77.3209 71.6991 76.5065 72.5131L49.5147 99.5051L19.5133 69.5034L25.6731 63.3438C26.4875 62.5292 26.4875 61.2093 25.6731 60.3949C24.8587 59.581 23.5386 59.581 22.7245 60.3949L15.0903 68.0291C14.2759 68.8437 14.2759 70.1636 15.0903 70.978L48.0406 103.928C48.4476 104.335 48.9814 104.538 49.5149 104.538C50.0485 104.538 50.5823 104.335 50.9893 103.928L79.4556 75.4615C80.2697 74.6471 80.2697 73.327 79.4554 72.5128Z" fill="#25803C"/>
<path d="M117.319 9.66269C109.744 2.0881 97.4191 2.08786 89.8443 9.66293C88.3085 11.1988 87.0648 12.9493 86.1257 14.8746L60.2589 10.2443C59.494 10.1076 58.7123 10.0379 57.9364 10.0379C54.4167 10.0379 51.1077 11.4087 48.6184 13.8978L3.85985 58.6563C1.37078 61.1452 0 64.4546 0 67.9745C0 71.4947 1.37078 74.8037 3.85985 77.2932L41.7251 115.159C44.2139 117.647 47.5229 119.018 51.0433 119.018C51.0438 119.018 51.044 119.018 51.0445 119.018C54.5642 119.018 57.8732 117.647 60.3622 115.158L105.12 70.4002C108.167 67.3531 109.533 63.0012 108.774 58.7596L105.895 42.6759C110.073 42.1789 114.12 40.3365 117.319 37.1376C124.894 29.5627 124.894 17.2375 117.319 9.66269ZM102.172 67.4513L57.4134 112.21C55.7118 113.911 53.4502 114.848 51.0443 114.848H51.0436C48.6371 114.848 46.3751 113.911 44.6735 112.21L6.80848 74.3441C5.10714 72.6428 4.17023 70.3805 4.17023 67.9748C4.17023 65.5686 5.10738 63.3065 6.80872 61.605L51.5668 16.8467C53.2684 15.1451 55.5304 14.2082 57.9359 14.2082C58.4663 14.2082 59.0006 14.2557 59.5236 14.3494L91.6398 20.0982C95.3332 20.7594 98.2587 23.6849 98.9196 27.3781L100.895 38.4106C98.61 38.0051 96.4015 37.0792 94.4611 35.6306C96.6165 32.5296 96.3155 28.2266 93.5535 25.4646C92.0504 23.9617 90.0521 23.1338 87.9263 23.1338C85.8004 23.1338 83.8024 23.9617 82.299 25.4646C79.1961 28.5675 79.1961 33.6162 82.299 36.7191C83.8022 38.222 85.8004 39.0498 87.9263 39.0498C89.0681 39.0498 90.1724 38.8089 91.1838 38.3548C94.2466 40.8977 97.9118 42.3557 101.667 42.7242L104.669 59.4947C105.188 62.3939 104.255 65.3682 102.172 67.4513ZM91.4017 32.5914C90.2253 31.0409 89.3686 29.2978 88.862 27.4237C89.5156 27.5892 90.116 27.9239 90.6053 28.4132C91.733 29.5411 91.9965 31.2081 91.4017 32.5914ZM87.9051 34.8787C86.9012 34.8731 85.9585 34.4806 85.2481 33.7702C83.8939 32.416 83.7851 30.2854 84.914 28.8019C85.5422 30.9933 86.5504 33.0389 87.9051 34.8787ZM105.159 38.5672L103.025 26.6432C102.058 21.2401 97.7778 16.9605 92.3752 15.9929L90.4369 15.646C91.0861 14.5467 91.8738 13.5309 92.7934 12.6116C98.7426 6.66241 108.422 6.66313 114.371 12.6116C120.32 18.56 120.32 28.24 114.371 34.1885C111.797 36.7623 108.525 38.2201 105.159 38.5672Z" fill="black"/>
</g>
<defs>
<clipPath id="clip0_3_69">
<rect width="123" height="123" fill="white"/>
</clipPath>
</defs>
</svg>
