<svg width="16" height="16" viewBox="0 0 16 16" fill="none" xmlns="http://www.w3.org/2000/svg">
<path d="M8 1C11.864 1 15 4.136 15 8C15 11.864 11.864 15 8 15C6.712 15 5.501 14.65 4.458 14.041L1 15L1.93802 11.5C1.34302 10.471 1 9.274 1 8C1 5.41 2.407 3.149 4.5 1.938" stroke="#292D32" stroke-width="1.5" stroke-miterlimit="10" stroke-linecap="round" stroke-linejoin="round"/>
<path d="M11.5 10.219C11.5 10.345 11.472 10.478 11.409 10.604C11.346 10.73 11.269 10.849 11.171 10.961C10.996 11.15 10.807 11.29 10.597 11.374C10.387 11.465 10.156 11.507 9.911 11.507C9.554 11.507 9.169 11.423 8.77 11.248C8.364 11.073 7.965 10.842 7.566 10.555C7.16 10.261 6.782 9.93198 6.41799 9.57498C6.05399 9.21098 5.73202 8.82598 5.43802 8.42698C5.15102 8.02798 4.91999 7.62898 4.75199 7.22998C4.58399 6.83098 4.5 6.44596 4.5 6.08196C4.5 5.84396 4.54199 5.61296 4.62599 5.40296C4.70999 5.18596 4.84301 4.98996 5.03201 4.81496C5.25601 4.59096 5.50099 4.48596 5.75999 4.48596C5.85799 4.48596 5.95601 4.50696 6.04701 4.54896C6.13801 4.59096 6.22199 4.65396 6.28499 4.74496L7.097 5.89295C7.16 5.98395 7.209 6.06095 7.237 6.13795C7.272 6.21495 7.286 6.28495 7.286 6.35495C7.286 6.43895 7.258 6.52296 7.209 6.60698C7.16 6.69098 7.097 6.77498 7.013 6.85898L6.747 7.13898C6.705 7.18098 6.691 7.22298 6.691 7.27898C6.691 7.30698 6.698 7.33498 6.705 7.36298C6.719 7.39098 6.726 7.41198 6.733 7.43298C6.796 7.55198 6.908 7.69898 7.062 7.88098C7.223 8.06298 7.391 8.25198 7.573 8.43398C7.762 8.62298 7.944 8.79098 8.133 8.95198C8.315 9.10598 8.469 9.21098 8.588 9.27398C8.609 9.28098 8.63 9.29498 8.651 9.30198C8.679 9.31598 8.707 9.31598 8.742 9.31598C8.805 9.31598 8.847 9.29498 8.889 9.25298L9.155 8.98698C9.246 8.89598 9.33 8.83298 9.407 8.79098C9.491 8.74198 9.568 8.71398 9.659 8.71398C9.729 8.71398 9.799 8.72798 9.876 8.76298C9.953 8.79798 10.037 8.83998 10.121 8.90298L11.283 9.72898C11.374 9.79198 11.437 9.86898 11.479 9.95298C11.479 10.037 11.5 10.121 11.5 10.219Z" stroke="#292D32" stroke-width="1.5" stroke-miterlimit="10"/>
</svg>
